<svg width="16" height="17" viewBox="0 0 16 17" xmlns="http://www.w3.org/2000/svg"><title>Age Icon</title><g fill="#E4D6F9" fill-rule="evenodd"><path d="M5 11.587V6.683H4V5.427h2v6.16M11.742 7.044c0 .525-.23.99-.613 1.247.535.277.87.853.87 1.524 0 1.084-.78 1.773-2 1.773s-2-.68-2-1.747c0-.688.362-1.273.927-1.55-.41-.282-.676-.764-.676-1.29 0-.962.684-1.573 1.743-1.573 1.073 0 1.75.628 1.75 1.617zm-2.57 2.64c0 .51.29.793.828.793.537 0 .836-.276.836-.792 0-.498-.3-.783-.836-.783-.537 0-.83.284-.83.783zm.124-2.554c0 .43.25.67.704.67.453 0 .704-.24.704-.67 0-.447-.25-.697-.704-.697-.453 0-.704.25-.704.697z"/><path d="M14.25 6.334c.23.698.346 1.428.346 2.173 0 3.734-2.96 6.77-6.596 6.77-3.637 0-6.596-3.036-6.596-6.77 0-3.734 2.96-6.772 6.596-6.772.725 0 1.437.12 2.116.357V.585C9.43.39 8.72.293 8 .293c-4.41 0-8 3.685-8 8.214 0 4.528 3.59 8.213 8 8.213s8-3.685 8-8.213c0-.74-.095-1.468-.284-2.173H14.25z"/><path d="M14.526 2.83V1.32h-1.06v1.51H12v1.086h1.465v1.51h1.06v-1.51H16V2.83"/></g></svg>