<svg width="41" height="41" viewBox="0 0 41 41" xmlns="http://www.w3.org/2000/svg"><title>Arrow right</title><g fill="#878787" fill-rule="evenodd"><path d="M20.885 40.44c11.1 0 20.098-9 20.098-20.098 0-11.1-8.997-20.098-20.098-20.098C9.785.244.787 9.242.787 20.342s9 20.098 20.098 20.098zm0-38.59c10.195 0 18.49 8.296 18.49 18.492 0 10.196-8.295 18.49-18.49 18.49-10.197 0-18.49-8.294-18.49-18.49 0-10.195 8.294-18.49 18.49-18.49z"/><path d="M22.105 28.982l1.137 1.137 9.776-9.778-9.776-9.777-1.137 1.137 7.835 7.836H10.434v1.608H29.94"/></g></svg>