<svg xmlns="http://www.w3.org/2000/svg" width="312" height="390" viewBox="0 0 312 390" xmlns:xlink="http://www.w3.org/1999/xlink"><defs><rect id="b" width="239.98" height="342.11" x="19" y="23" rx="7"/><filter id="a" width="114.6%" height="110.2%" x="-7.3%" y="-3.7%" filterUnits="objectBoundingBox"><feOffset dy="5" in="SourceAlpha" result="shadowOffsetOuter1"/><feGaussianBlur stdDeviation="5" in="shadowOffsetOuter1" result="shadowBlurOuter1"/><feComposite in="shadowBlurOuter1" in2="SourceAlpha" operator="out" result="shadowBlurOuter1"/><feColorMatrix values="0 0 0 0 0 0 0 0 0 0 0 0 0 0 0 0 0 0 0.3 0" in="shadowBlurOuter1"/></filter><path id="c" d="M.025 213.29V0h203.908V213.29z"/><rect id="f" width="239.938" height="342.311" x="19.509" y="22.826" rx="7"/><filter id="e" width="114.6%" height="110.2%" x="-7.3%" y="-3.7%" filterUnits="objectBoundingBox"><feOffset dy="5" in="SourceAlpha" result="shadowOffsetOuter1"/><feGaussianBlur stdDeviation="5" in="shadowOffsetOuter1" result="shadowBlurOuter1"/><feComposite in="shadowBlurOuter1" in2="SourceAlpha" operator="out" result="shadowBlurOuter1"/><feColorMatrix values="0 0 0 0 0 0 0 0 0 0 0 0 0 0 0 0 0 0 0.3 0" in="shadowBlurOuter1"/></filter></defs><g fill="none" fill-rule="evenodd" transform="rotate(-8 117.652 46.486)"><use fill="#000" filter="url(#a)" xlink:href="#b"/><use fill="#FFF" xlink:href="#b"/><rect width="239.48" height="341.61" x="19.25" y="23.25" stroke="#E6E6E6" stroke-width=".5" rx="7"/><path fill="#50E3C2" d="M30.485 34.514h218.29v286.99H30.485z"/><g transform="translate(37.72 108.06)"><mask id="d" fill="#fff"><use xlink:href="#c"/></mask><path fill="#648FBE" d="M187.123 160.95l-.756-.22c-11.037-2.955-14.777-5.8-19.69-7.668-17.422-6.64-21.957-11.417-23.117-13.675-.046-.085-.078-.17-.117-.254l-.144-20.223-41.335-.47-41.338.47-.143 20.223c-.036.085-.07.17-.11.254-1.16 2.258-5.696 7.036-23.125 13.675-4.913 1.868-8.647 4.713-19.688 7.668l-.755.22C6.76 164.27 0 173.58 0 184.084v29.206h203.933v-29.207c0-10.505-6.763-19.812-16.81-23.132" mask="url(#d)"/><path fill="#E5C2B3" d="M159.328 79.77c0 37.233-35.536 71.496-57.363 71.496-21.83 0-57.36-34.263-57.36-71.495 0-37.23 25.68-61.79 57.36-61.79s57.363 24.56 57.363 61.79" mask="url(#d)"/><path fill="#884E4D" d="M137.448 11.837c-9.753-8.826-43.64-21.506-75.068 0C37.595 28.8 40.096 71.563 40.096 71.563s32.523 8.208 69.78-13.05c24.08-13.748 32.472.234 36.785 12.406 4.197 11.845 12.668 8.85 12.668 8.85s9.33-39.704-21.88-67.933" mask="url(#d)"/></g><path fill="#703D3C" d="M164.405 160.897c3.4-.104 6.26.644 8.678 1.98 4.626-16.77 13.735-21.28 17.71-22.47-1.297-2.604-2.802-5.214-4.548-7.798-6.503 2.557-16.784 9.508-21.84 28.287"/><use fill="#000" filter="url(#e)" xlink:href="#f"/><use fill="#7ED321" fill-opacity=".35" xlink:href="#f"/><g fill="#66B659"><path d="M33.84 61.05L16.3 43.573l5.847-5.826 11.694 11.65 26.31-26.213 5.847 5.825L33.84 61.05zM40.558.702C18.667.703.917 18.45.917 40.343c0 21.89 17.75 39.64 39.64 39.64 21.894 0 39.64-17.75 39.64-39.64 0-21.893-17.747-39.64-39.64-39.64z"/></g></g></svg>