<svg xmlns="http://www.w3.org/2000/svg" width="249" height="324" viewBox="0 0 249 324" xmlns:xlink="http://www.w3.org/1999/xlink"><defs><rect id="a" width="207.059" height="295.404" rx="7"/><filter id="b" width="200%" height="200%" x="-50%" y="-50%" filterUnits="objectBoundingBox"><feOffset dy="2" in="SourceAlpha" result="shadowOffsetOuter1"/><feGaussianBlur stdDeviation="1" in="shadowOffsetOuter1" result="shadowBlurOuter1"/><feComposite in="shadowBlurOuter1" in2="SourceAlpha" operator="out" result="shadowBlurOuter1"/><feColorMatrix values="0 0 0 0 0 0 0 0 0 0 0 0 0 0 0 0 0 0 0.112092391 0" in="shadowBlurOuter1"/></filter><mask id="c" width="207.059" height="295.404" x="0" y="0" fill="#fff"><use xlink:href="#a"/></mask><path id="d" d="M.023 198.647V.004h173.16v198.643z"/></defs><g fill="none" fill-rule="evenodd" transform="rotate(8 26.137 308.716)"><use fill="#000" filter="url(#b)" xlink:href="#a"/><use fill="#FFF" stroke="#E6E6E6" mask="url(#c)" xlink:href="#a"/><path fill="#F0A4A4" d="M9.913 9.913h188.345v247.822H9.913z"/><g transform="translate(17.476 58.486)"><mask id="e" fill="#fff"><use xlink:href="#d"/></mask><path fill="#884E4D" d="M149.808 153.51H23.376S-9.572.004 86.592.004c96.163 0 63.216 153.506 63.216 153.506" mask="url(#e)"/><path fill="#BD0FE1" d="M157.55 149.903l-.704-.206c-10.27-2.753-13.743-5.408-18.314-7.142-16.222-6.183-20.442-10.633-21.52-12.736-.037-.08-.067-.16-.097-.238l-.14-18.834-30.183-.437-30.184.437-.133 18.835c-.03.08-.067.158-.103.236-1.08 2.104-5.3 6.554-21.515 12.737-4.57 1.734-8.044 4.39-18.314 7.14l-.703.207C6.292 152.994 0 161.662 0 171.446v27.2h173.183v-27.2c0-9.783-6.287-18.452-15.634-21.543" mask="url(#e)"/><path fill="#E5C2B3" d="M139.963 74.126c0 34.675-33.063 66.586-53.37 66.586-20.31 0-53.372-31.91-53.372-66.586S57.12 16.572 86.593 16.572s53.37 22.878 53.37 57.554"/><path fill="#884E4D" d="M131.585 33.11L102.67 15.177l-38.97-.69-23.97 21.557L29.9 66.22h112.878l-11.19-33.11"/><path fill="#703D3C" d="M139.963 62.08h-7.536v-4.14c0-2.285-1.854-4.134-4.14-4.134-2.286 0-4.134 1.85-4.134 4.134v4.14h-8.28v-4.14c0-2.285-1.856-4.134-4.135-4.134-2.292 0-4.14 1.85-4.14 4.134v4.14H99.32v-4.14c0-2.285-1.854-4.134-4.14-4.134-2.286 0-4.14 1.85-4.14 4.134v4.14h-8.276v-4.14c0-2.285-1.855-4.134-4.14-4.134-2.286 0-4.134 1.85-4.134 4.134v4.14h-8.28v-4.14c0-2.285-1.856-4.134-4.136-4.134-2.29 0-4.14 1.85-4.14 4.134v4.14H49.66v-4.14c0-2.285-1.854-4.134-4.14-4.134-2.285 0-4.14 1.85-4.14 4.134v4.14h-8.153c-2.286 0-4.14 1.855-4.14 4.14 0 2.287 1.854 4.135 4.14 4.135h106.735c2.28 0 4.135-1.85 4.135-4.134 0-2.284-1.855-4.14-4.134-4.14"/></g></g></svg>