<svg xmlns="http://www.w3.org/2000/svg" width="316" height="391" viewBox="0 0 316 391" xmlns:xlink="http://www.w3.org/1999/xlink"><defs><rect id="b" width="239.938" height="342.311" y="25" rx="7"/><filter id="a" width="114.6%" height="110.2%" x="-7.3%" y="-3.7%" filterUnits="objectBoundingBox"><feOffset dy="5" in="SourceAlpha" result="shadowOffsetOuter1"/><feGaussianBlur stdDeviation="5" in="shadowOffsetOuter1" result="shadowBlurOuter1"/><feComposite in="shadowBlurOuter1" in2="SourceAlpha" operator="out" result="shadowBlurOuter1"/><feColorMatrix values="0 0 0 0 0 0 0 0 0 0 0 0 0 0 0 0 0 0 0.3 0" in="shadowBlurOuter1"/></filter><path id="c" d="M.027 230.19V.005h200.656V230.19z"/><rect id="f" width="239.938" height="342.311" y="25" rx="7"/><filter id="e" width="114.6%" height="110.2%" x="-7.3%" y="-3.7%" filterUnits="objectBoundingBox"><feOffset dy="5" in="SourceAlpha" result="shadowOffsetOuter1"/><feGaussianBlur stdDeviation="5" in="shadowOffsetOuter1" result="shadowBlurOuter1"/><feComposite in="shadowBlurOuter1" in2="SourceAlpha" operator="out" result="shadowBlurOuter1"/><feColorMatrix values="0 0 0 0 0 0 0 0 0 0 0 0 0 0 0 0 0 0 0.3 0" in="shadowBlurOuter1"/></filter></defs><g fill="none" fill-rule="evenodd" transform="rotate(8 173.133 425.687)"><use fill="#000" filter="url(#a)" xlink:href="#b"/><use fill="#FFF" xlink:href="#b"/><rect width="239.438" height="341.811" x=".25" y="25.25" stroke="#E6E6E6" stroke-width=".5" rx="7"/><path fill="#F0A4A4" d="M11.487 36.487H229.74V323.66H11.486z"/><g transform="translate(20.25 92.773)"><mask id="d" fill="#fff"><use xlink:href="#c"/></mask><path fill="#884E4D" d="M173.596 177.885H27.086S-11.09.005 100.342.005c111.435 0 73.256 177.88 73.256 177.88" mask="url(#d)"/><path fill="#BD0FE1" d="M182.566 173.706l-.815-.24c-11.898-3.19-15.923-6.266-21.22-8.274-18.798-7.166-23.688-12.322-24.938-14.76-.042-.09-.077-.182-.112-.273l-.162-21.827-34.977-.506-34.974.506-.155 21.825c-.034.092-.076.183-.12.274-1.25 2.438-6.138 7.594-24.93 14.76-5.296 2.008-9.32 5.085-21.22 8.274l-.816.24C7.29 177.287 0 187.332 0 198.67v31.52h200.683v-31.52c0-11.336-7.285-21.382-18.117-24.964" mask="url(#d)"/></g><path fill="#E5C2B3" d="M182.438 178.67c0 40.18-38.314 77.16-61.847 77.16-23.532 0-61.844-36.98-61.844-77.16 0-40.182 27.69-66.694 61.845-66.694 34.156 0 61.848 26.512 61.848 66.694"/><path fill="#884E4D" d="M172.73 131.14l-33.508-20.78-45.156-.8-27.776 24.98-11.394 34.97h130.8l-12.967-38.37"/><path fill="#703D3C" d="M182.438 164.71h-8.732v-4.797c0-2.648-2.15-4.79-4.798-4.79-2.65 0-4.79 2.142-4.79 4.79v4.798h-9.597v-4.797c0-2.648-2.148-4.79-4.79-4.79-2.655 0-4.798 2.142-4.798 4.79v4.798h-9.588v-4.797c0-2.648-2.15-4.79-4.798-4.79-2.65 0-4.798 2.142-4.798 4.79v4.798h-9.59v-4.797c0-2.648-2.15-4.79-4.797-4.79-2.648 0-4.79 2.142-4.79 4.79v4.798h-9.596v-4.797c0-2.648-2.15-4.79-4.79-4.79-2.656 0-4.798 2.142-4.798 4.79v4.798h-9.59v-4.797c0-2.648-2.148-4.79-4.797-4.79-2.65 0-4.8 2.142-4.8 4.79v4.798h-9.447c-2.65 0-4.798 2.15-4.798 4.8 0 2.648 2.15 4.79 4.798 4.79h123.684c2.64 0 4.79-2.143 4.79-4.79 0-2.65-2.148-4.8-4.79-4.8"/><g><use fill="#000" filter="url(#e)" xlink:href="#f"/><use fill="#7ED321" fill-opacity=".35" xlink:href="#f"/></g><g fill="#66B659"><path d="M215.84 61.05L198.3 43.573l5.847-5.826 11.694 11.65 26.31-26.213 5.847 5.825-32.156 32.04zM222.558.702c-21.89 0-39.64 17.747-39.64 39.64 0 21.89 17.75 39.64 39.64 39.64 21.894 0 39.64-17.75 39.64-39.64 0-21.893-17.747-39.64-39.64-39.64z"/></g></g></svg>