<svg xmlns="http://www.w3.org/2000/svg" width="252" height="328" viewBox="0 0 252 328" xmlns:xlink="http://www.w3.org/1999/xlink"><defs><rect id="a" width="208.879" height="298" rx="7"/><filter id="b" width="200%" height="200%" x="-50%" y="-50%" filterUnits="objectBoundingBox"><feOffset dy="2" in="SourceAlpha" result="shadowOffsetOuter1"/><feGaussianBlur stdDeviation="1" in="shadowOffsetOuter1" result="shadowBlurOuter1"/><feComposite in="shadowBlurOuter1" in2="SourceAlpha" operator="out" result="shadowBlurOuter1"/><feColorMatrix values="0 0 0 0 0 0 0 0 0 0 0 0 0 0 0 0 0 0 0.05 0" in="shadowBlurOuter1"/></filter><mask id="c" width="208.879" height="298" x="0" y="0" fill="#fff"><use xlink:href="#a"/></mask><path id="d" d="M.022 185.834V.002h177.48v185.832z"/></defs><g fill="none" fill-rule="evenodd" transform="rotate(-8 207.954 5.343)"><use fill="#000" filter="url(#b)" xlink:href="#a"/><use fill="#FFF" stroke="#E6E6E6" mask="url(#c)" xlink:href="#a"/><path fill="#50E3C2" d="M10 10h190v250H10z"/><g transform="translate(16.3 74)"><mask id="e" fill="#fff"><use xlink:href="#d"/></mask><path fill="#648FBE" d="M162.872 140.233l-.658-.193c-9.607-2.574-12.862-5.053-17.138-6.68-15.164-5.785-19.112-9.947-20.12-11.915-.04-.074-.07-.148-.103-.22l-.125-17.622-35.978-.408-35.98.408-.125 17.62c-.03.074-.06.148-.096.222-1.01 1.968-4.958 6.13-20.128 11.915-4.276 1.627-7.526 4.106-17.136 6.68l-.657.193C5.883 143.125 0 151.235 0 160.388v25.446h177.503v-25.446c0-9.153-5.886-17.263-14.63-20.155" mask="url(#e)"/><path fill="#E5C2B3" d="M138.68 69.503c0 32.44-30.93 62.292-49.93 62.292s-49.926-29.853-49.926-62.292c0-32.44 22.353-53.836 49.926-53.836 27.574 0 49.93 21.397 49.93 53.836" mask="url(#e)"/><path fill="#884E4D" d="M119.635 10.313c-8.49-7.69-37.985-18.737-65.34 0C32.722 25.093 34.9 62.35 34.9 62.35s28.307 7.153 60.735-11.37c20.96-11.977 28.265.205 32.02 10.81 3.65 10.32 11.024 7.713 11.024 7.713s8.12-34.594-19.045-59.19" mask="url(#e)"/></g><path fill="#703D3C" d="M126.567 120.036c2.96-.09 5.45.56 7.553 1.724 4.027-14.61 11.955-18.54 15.415-19.577-1.13-2.27-2.44-4.543-3.96-6.794-5.66 2.228-14.608 8.284-19.008 24.646"/></g></svg>