<svg width="21" height="20" viewBox="0 0 21 20" xmlns="http://www.w3.org/2000/svg"><title>Collection icon</title><path d="M15.244 12.216c-.145.14-.208.343-.172.542l1.036 5.926-5.35-2.785c-.175-.095-.388-.09-.57 0l-5.33 2.816 1-5.936c.032-.198-.03-.397-.176-.537l-4.326-4.19 5.97-.883c.198-.032.37-.154.456-.334l2.65-5.403 2.69 5.39c.09.18.262.302.46.333l5.974.85-4.312 4.21zm5.627-4.694c-.067-.21-.248-.36-.466-.394l-6.52-.924L10.948.32c-.1-.196-.3-.32-.52-.32-.218 0-.42.124-.52.325l-2.894 5.9-6.52.968c-.22.034-.4.184-.468.393-.07.21-.01.44.15.59l4.732 4.575-1.094 6.48c-.04.217.05.435.23.564.1.072.22.11.34.11.095 0 .185-.02.27-.068l5.822-3.076 5.838 3.042c.086.043.176.064.266.064.317 0 .58-.26.58-.577 0-.048-.005-.09-.018-.134l-1.128-6.44 4.7-4.6c.168-.153.224-.384.155-.594z" fill="#E11D24" fill-rule="evenodd"/></svg>