<svg width="23" height="18" viewBox="0 0 23 18" xmlns="http://www.w3.org/2000/svg"><title>dashboard icon</title><g fill="#E11D24" fill-rule="evenodd"><path d="M1.97 4.666l9.513 3.607 9.515-3.607-9.515-3.606L1.97 4.666zm9.513 4.666c-.064 0-.128-.01-.19-.034L.334 5.143C.133 5.066 0 4.877 0 4.666c0-.21.132-.4.333-.477L11.293.033c.123-.045.257-.045.38 0l10.96 4.155c.2.076.333.265.333.476 0 .21-.132.4-.333.477l-10.96 4.155c-.062.023-.126.034-.19.034z"/><path d="M11.483 13.807c-.064 0-.128-.012-.188-.035L.335 9.618C.132 9.54 0 9.352 0 9.14c0-.21.133-.4.334-.477l5.48-2.077c.27-.102.57.03.675.292.103.264-.03.56-.3.662L1.97 9.14l9.515 3.607 9.515-3.607-4.223-1.6c-.27-.102-.402-.398-.298-.662.104-.263.405-.393.675-.292l5.48 2.077c.202.077.334.266.334.477 0 .212-.132.4-.333.478L11.67 13.772c-.06.023-.123.035-.187.035"/><path d="M11.483 17.897c-.064 0-.128-.01-.188-.034L.335 13.708C.132 13.632 0 13.442 0 13.23c0-.21.133-.4.334-.476l5.22-1.98c.268-.104.57.027.675.29.102.264-.03.56-.3.663L1.968 13.23l9.515 3.608 9.515-3.607-3.962-1.503c-.27-.103-.402-.4-.298-.662.104-.264.406-.394.675-.292l5.22 1.98c.2.078.333.267.333.478 0 .212-.132.402-.333.478L11.67 17.863c-.06.023-.123.034-.187.034"/></g></svg>