<svg xmlns="http://www.w3.org/2000/svg" width="127" height="127" viewBox="0 0 127 127" xmlns:xlink="http://www.w3.org/1999/xlink"><defs><ellipse id="b" cx="61.5" cy="61.5" rx="61.5" ry="61.5"/><filter id="a" width="200%" height="200%" x="-50%" y="-50%" filterUnits="objectBoundingBox"><feOffset dy="2" in="SourceAlpha" result="shadowOffsetOuter1"/><feGaussianBlur stdDeviation="1" in="shadowOffsetOuter1" result="shadowBlurOuter1"/><feColorMatrix values="0 0 0 0 0 0 0 0 0 0 0 0 0 0 0 0 0 0 0.05 0" in="shadowBlurOuter1"/></filter></defs><g fill="none" fill-rule="evenodd" transform="translate(2)"><use fill="#000" filter="url(#a)" xlink:href="#b"/><use fill="#E04F5F" xlink:href="#b"/><path fill="#FFF" d="M68.104 61.5l16.012-17.193c1.746-1.875 1.518-4.706-.51-6.32-2.025-1.615-5.084-1.405-6.832.47L61.71 54.633 46.646 38.457c-1.746-1.876-4.807-2.086-6.835-.47-2.027 1.614-2.254 4.445-.507 6.32L55.315 61.5l-16.01 17.193c-1.747 1.876-1.52 4.706.507 6.32.916.73 2.04 1.087 3.16 1.087 1.362 0 2.715-.528 3.675-1.556L61.71 68.367l15.064 16.177c.957 1.03 2.31 1.556 3.673 1.556 1.12 0 2.245-.357 3.16-1.086 2.027-1.615 2.255-4.446.51-6.32L68.103 61.5z"/></g></svg>