<svg xmlns="http://www.w3.org/2000/svg" width="306" height="201" viewBox="0 0 306 201" xmlns:xlink="http://www.w3.org/1999/xlink"><defs><rect id="a" width="291.462" height="101.96" x="9.269" y="51.495" rx="5"/><mask id="b" width="291.462" height="101.96" x="0" y="0" fill="#fff"><use xlink:href="#a"/></mask></defs><g fill="none" fill-rule="evenodd" transform="translate(-2 -2)"><use fill="#FFF" stroke="#FE5068" stroke-width="8" mask="url(#b)" transform="rotate(22 155 102.475)" xlink:href="#a"/><path fill="#FE5068" d="M50.546 33.11l11.687 4.72 6.225 45.745 15.014-37.163 10.385 4.196L72.35 103.84l-11.145-4.5L54.7 52.725 39.423 90.538l-10.385-4.195L50.546 33.11zm80.058 79.354c3.907-2.202 7.07-6.3 9.493-12.296 2.412-5.97 2.98-11.112 1.706-15.422-1.275-4.31-4.12-7.357-8.534-9.14-4.415-1.784-8.593-1.58-12.536.607-3.942 2.188-7.125 6.28-9.547 12.274-2.422 5.996-2.975 11.15-1.66 15.462 1.317 4.312 4.182 7.36 8.596 9.143 4.415 1.784 8.575 1.574 12.48-.63zm3.697 10.904c-5.7 2.514-12.363 2.23-19.985-.85-7.623-3.078-12.61-7.503-14.966-13.27-3.352-7.265-3.097-15.675.765-25.234 3.94-9.75 9.6-15.98 16.977-18.683 5.7-2.513 12.363-2.23 19.986.85 7.622 3.08 12.61 7.504 14.966 13.272 3.405 7.06 3.137 15.467-.803 25.218-3.86 9.56-9.507 15.79-16.94 18.698zm68.15-16.072c-.983-1.77-2.79-3.186-5.418-4.248l-10.384-4.196-6.333 15.674 10.384 4.196c2.63 1.062 4.93 1.25 6.906.564 1.975-.687 3.52-2.414 4.64-5.183 1.12-2.77 1.187-5.038.204-6.807zm.7 22.59c-4.234 1.314-9.306.777-15.216-1.61L176.61 123.7l-7.735 19.14-11.072-4.473 21.508-53.233 23.23 9.385c5.355 2.162 9.07 5.26 11.146 9.29 2.075 4.032 1.95 8.925-.375 14.68-2.538 6.283-5.925 10.082-10.16 11.396zm69.553 3.945l-28.222-11.4-4.567 11.303L265.82 144.2l-3.735 9.245-25.907-10.467-5.53 13.688 29.525 11.928-3.867 9.57-40.416-16.328 21.508-53.234 39.113 15.803-3.807 9.426z"/></g></svg>