<svg width="13" height="11" viewBox="0 0 13 11" xmlns="http://www.w3.org/2000/svg"><title>Fill 1</title><path d="M6.762 8.227c-.003.004-.01.002-.013.005-.064.06-.146.096-.238.1H6.51c-.1.002-.198-.03-.273-.105L4.04 5.663c-.145-.145-.145-.38 0-.524.144-.145.378-.145.523 0l1.57 1.832V1.366c0-.202.164-.366.367-.366.202 0 .367.164.367.366v5.606l1.57-1.833c.145-.145.38-.145.523 0 .145.144.145.378 0 .523L6.762 8.227zm4.87 2.306H1.368c-.203 0-.367-.164-.367-.367V7.233c0-.202.164-.367.367-.367.202 0 .366.165.366.367V9.8h9.534V7.233c0-.202.164-.367.366-.367.203 0 .367.165.367.367v2.933c0 .203-.164.367-.367.367z" fill="#E11D24" stroke="#E11D24" stroke-width=".2" fill-rule="evenodd"/></svg>