<svg width="15" height="14" viewBox="0 0 15 14" xmlns="http://www.w3.org/2000/svg"><title>Fill 38</title><path d="M13.125 12.188H1.875c-.518 0-.938-.422-.938-.938s.42-.938.938-.938h11.25c.518 0 .938.422.938.938s-.42.938-.938.938zm0-2.813H1.875C.84 9.375 0 10.215 0 11.25c0 1.036.84 1.875 1.875 1.875h11.25c1.035 0 1.875-.84 1.875-1.875 0-1.036-.84-1.875-1.875-1.875zm0-1.875H1.875c-.518 0-.938-.422-.938-.938 0-.515.42-.937.938-.937h11.25c.518 0 .938.422.938.938 0 .515-.42.937-.938.937zm0-2.813H1.875C.84 4.688 0 5.527 0 6.563c0 1.036.84 1.875 1.875 1.875h11.25c1.035 0 1.875-.84 1.875-1.874 0-1.036-.84-1.875-1.875-1.875zM1.875.938h11.25c.518 0 .938.422.938.938s-.42.938-.938.938H1.875c-.518 0-.938-.422-.938-.938s.42-.938.938-.938zm0 2.813h11.25C14.16 3.75 15 2.91 15 1.875 15 .84 14.16 0 13.125 0H1.875C.84 0 0 .84 0 1.875 0 2.91.84 3.75 1.875 3.75z" fill="#C7C9CB" fill-rule="evenodd" opacity=".572"/></svg>