<svg width="20" height="16" viewBox="0 0 20 16" xmlns="http://www.w3.org/2000/svg"><title>Gender Icon</title><g fill="#F17C31" fill-rule="evenodd"><path d="M16.006 5.53V4.19h.785V2.493h-.784V1.282h-1.96v1.212h-.863V4.19h.863v1.326C11.77 5.97 10 8.064 10 10.57c0 2.84 2.25 5.15 5.008 5.15S20 13.41 20 10.57c0-2.48-1.72-4.555-3.994-5.04zm-.99 8.17c-1.678 0-3.042-1.403-3.042-3.13 0-1.725 1.364-3.13 3.04-3.13 1.678 0 3.042 1.405 3.042 3.13 0 1.728-1.364 3.13-3.04 3.13zM10 5.427C10 2.61 7.764.32 5.008.32S0 2.61 0 5.427C0 7.914 1.777 9.99 4.05 10.44v2.243l-.642-.565-1.056 1.284L5.04 15.72l2.77-2.31-1.053-1.3-.748.612v-2.296c2.272-.483 3.99-2.54 3.99-5zm-8.024 0c0-1.712 1.363-3.105 3.04-3.105 1.674 0 3.038 1.393 3.038 3.105 0 1.71-1.364 3.104-3.04 3.104-1.675 0-3.038-1.392-3.038-3.103z"/></g></svg>