<svg width="24" height="25" viewBox="0 0 24 25" xmlns="http://www.w3.org/2000/svg" xmlns:xlink="http://www.w3.org/1999/xlink"><title>Happy Face</title><defs><ellipse id="b" cx="10.07" cy="10.251" rx="9.75" ry="10.01"/><filter x="-20.5%" width="141%" height="140%" filterUnits="objectBoundingBox" id="a"><feOffset dy="2" in="SourceAlpha" result="shadowOffsetOuter1"/><feGaussianBlur stdDeviation="1" in="shadowOffsetOuter1" result="shadowBlurOuter1"/><feColorMatrix values="0 0 0 0 0 0 0 0 0 0 0 0 0 0 0 0 0 0 0.05 0" in="shadowBlurOuter1"/></filter></defs><g fill="none" fill-rule="evenodd"><g transform="translate(2 .267)"><use fill="#000" filter="url(#a)" xlink:href="#b"/><use fill="#32BEA6" xlink:href="#b"/></g><path d="M15.86 11.02c-.22.11-.366.29-.44.53-.228.747-.652 1.35-1.27 1.813-.617.46-1.31.692-2.08.692s-1.462-.23-2.08-.692c-.618-.462-1.042-1.066-1.27-1.812-.074-.24-.218-.42-.433-.53-.215-.112-.437-.132-.666-.056-.237.074-.41.22-.52.44-.11.22-.13.446-.056.678.34 1.13.97 2.038 1.895 2.73.924.69 1.967 1.034 3.13 1.034 1.163 0 2.207-.345 3.13-1.035.925-.69 1.557-1.6 1.896-2.728.074-.232.055-.46-.055-.678-.11-.22-.28-.365-.507-.44 0 0-.453-.056-.673.056z" stroke="#32BEA6" fill="#FFF"/><path d="M8.268 8.516c.35 0 .648-.127.896-.38.247-.255.37-.562.37-.92 0-.36-.123-.667-.37-.92-.248-.255-.547-.382-.896-.382-.35 0-.65.127-.897.38-.246.255-.37.562-.37.92 0 .36.124.667.37.92.25.255.548.382.898.382M15.873 5.914c-.35 0-.65.127-.897.38-.247.255-.37.562-.37.92 0 .36.123.667.37.92.248.255.547.382.897.382s.648-.127.896-.38c.246-.255.37-.562.37-.92 0-.36-.124-.667-.37-.92-.25-.255-.548-.382-.897-.382" fill="#FFF"/></g></svg>