<svg width="43" height="43" viewBox="0 0 43 43" xmlns="http://www.w3.org/2000/svg" xmlns:xlink="http://www.w3.org/1999/xlink"><title>Likes</title><defs><circle id="b" cx="20.14" cy="19.97" r="19.5"/><filter x="-10.3%" y="-5.1%" width="120.5%" height="120.5%" filterUnits="objectBoundingBox" id="a"><feOffset dy="2" in="SourceAlpha" result="shadowOffsetOuter1"/><feGaussianBlur stdDeviation="1" in="shadowOffsetOuter1" result="shadowBlurOuter1"/><feColorMatrix values="0 0 0 0 0 0 0 0 0 0 0 0 0 0 0 0 0 0 0.05 0" in="shadowBlurOuter1"/></filter></defs><g fill="none" fill-rule="evenodd"><path d="M2 19.5C2 8.73 10.73 0 21.5 0S41 8.73 41 19.5 32.27 39 21.5 39 2 30.27 2 19.5z" fill="#E04F5F"/><g transform="translate(1.36 -.47)"><use fill="#000" filter="url(#a)" xlink:href="#b"/><use fill="#32BEA6" xlink:href="#b"/></g><path d="M29.08 20.477c-.44.217-.733.563-.878 1.035-.458 1.454-1.305 2.63-2.54 3.53-1.237.9-2.624 1.35-4.162 1.35-1.538 0-2.925-.45-4.16-1.35-1.237-.9-2.084-2.076-2.54-3.53-.148-.472-.436-.818-.866-1.035-.43-.218-.874-.256-1.333-.11-.474.146-.823.432-1.042.858-.22.427-.257.87-.11 1.322.677 2.2 1.94 3.97 3.79 5.315 1.85 1.344 3.937 2.016 6.262 2.016 2.325 0 4.413-.672 6.262-2.016 1.848-1.345 3.112-3.116 3.79-5.315.147-.453.11-.895-.11-1.322-.22-.426-.56-.71-1.016-.857 0 0-.906-.11-1.346.11z" stroke="#32BEA6" fill="#FFF"/><path d="M13.895 15.6c.7 0 1.297-.248 1.792-.743.495-.495.743-1.092.743-1.792s-.248-1.297-.743-1.792c-.495-.495-1.092-.743-1.792-.743s-1.297.248-1.792.743c-.495.495-.743 1.092-.743 1.792s.248 1.297.743 1.792c.495.495 1.092.743 1.792.743M29.105 10.53c-.7 0-1.297.248-1.792.743-.495.495-.743 1.092-.743 1.792s.248 1.297.743 1.792c.495.495 1.093.743 1.792.743.7 0 1.297-.248 1.792-.743.495-.495.743-1.092.743-1.792s-.248-1.297-.743-1.792c-.495-.495-1.093-.743-1.792-.743" fill="#FFF"/></g></svg>