<svg xmlns="http://www.w3.org/2000/svg" xmlns:xlink="http://www.w3.org/1999/xlink" width="127" height="127" viewBox="0 0 127 127"><defs><circle id="b" cx="61.5" cy="61.5" r="61.5"/><filter id="a" width="106.5%" height="106.5%" x="-3.3%" y="-1.6%" filterUnits="objectBoundingBox"><feOffset dy="2" in="SourceAlpha" result="shadowOffsetOuter1"/><feGaussianBlur in="shadowOffsetOuter1" result="shadowBlurOuter1" stdDeviation="1"/><feColorMatrix in="shadowBlurOuter1" values="0 0 0 0 0 0 0 0 0 0 0 0 0 0 0 0 0 0 0.05 0"/></filter></defs><g fill="none" fill-rule="evenodd" transform="translate(2)"><use fill="#000" filter="url(#a)" xlink:href="#b"/><use fill="#32BEA6" xlink:href="#b"/><g fill="#FFF"><path stroke="#32BEA6" stroke-width="4" d="M85.406 64.58c-1.388.686-2.31 1.776-2.77 3.267-1.443 4.584-4.116 8.295-8.013 11.13-3.898 2.836-8.273 4.255-13.124 4.255-4.85 0-9.224-1.42-13.124-4.255-3.897-2.835-6.568-6.546-8.01-11.13-.463-1.49-1.372-2.58-2.73-3.267-1.356-.686-2.756-.806-4.2-.344-1.5.457-2.6 1.36-3.293 2.705-.693 1.348-.808 2.74-.344 4.17 2.133 6.935 6.118 12.52 11.95 16.762 5.834 4.24 12.416 6.36 19.75 6.36 7.333 0 13.918-2.12 19.75-6.36 5.828-4.243 9.813-9.827 11.95-16.762.466-1.43.35-2.822-.344-4.17-.697-1.345-1.765-2.244-3.206-2.704 0 0-2.858-.342-4.244.344z"/><path d="M37.515 49.2c2.206 0 4.09-.782 5.652-2.342 1.562-1.56 2.343-3.446 2.343-5.652 0-2.207-.78-4.092-2.343-5.654-1.56-1.56-3.446-2.342-5.652-2.342s-4.09.782-5.653 2.342c-1.56 1.563-2.342 3.447-2.342 5.654 0 2.206.78 4.09 2.342 5.652 1.562 1.56 3.447 2.342 5.653 2.342m47.97-15.99c-2.206 0-4.09.78-5.653 2.342-1.56 1.562-2.342 3.446-2.342 5.652 0 2.207.782 4.093 2.342 5.654 1.562 1.56 3.447 2.342 5.654 2.342 2.205 0 4.09-.782 5.652-2.342 1.56-1.56 2.342-3.447 2.342-5.654 0-2.206-.78-4.09-2.342-5.652-1.563-1.56-3.447-2.342-5.652-2.342"/></g></g></svg>