<svg xmlns="http://www.w3.org/2000/svg" width="40" height="40" viewBox="0 0 40 40" xmlns:xlink="http://www.w3.org/1999/xlink"><defs><path id="a" d="M1.93 14.673H0V.005H3.855v14.668z"/></defs><g fill="none" fill-rule="evenodd"><circle cx="20" cy="20" r="20" fill="#556080"/><g transform="translate(10 13)"><mask id="b" fill="#fff"><use xlink:href="#a"/></mask><path fill="#E7ECED" d="M1.928 1.764v0zm0 1.76C.865 3.525 0 2.735 0 1.765S.865.005 1.928.005s1.928.79 1.928 1.76-.865 1.76-1.928 1.76zm0 9.388v0zm0 1.76C.865 14.673 0 13.885 0 12.913c0-.97.865-1.76 1.928-1.76s1.928.79 1.928 1.76c0 .972-.865 1.76-1.928 1.76zm0-7.334v.001zm0 1.76C.865 9.1 0 8.31 0 7.34c0-.97.865-1.76 1.928-1.76s1.928.79 1.928 1.76c0 .972-.865 1.76-1.928 1.76z" mask="url(#b)"/><path fill="#E7ECED" d="M5.263 8.42H20V6.317H5.263M5.263 13.684H20V11.58H5.263M5.263 3.158H20V1.053H5.263"/></g></g></svg>