<svg width="21" height="21" viewBox="0 0 21 21" xmlns="http://www.w3.org/2000/svg"><title>Meetings icon</title><g fill="#E11D24" fill-rule="evenodd"><path d="M5.696 8.192l.07.045c.206.127.353.218.41.412.22.765 1.715 3.613 3.736 3.613 2.02 0 3.515-2.848 3.736-3.613.055-.193.204-.286.41-.414.024-.015.05-.03.07-.044.54-.984.456-1.424.392-1.57-.077-.176-.24-.22-.258-.224-.207-.05-.362-.243-.35-.455 0-.01.057-1.14-.217-2.172-.027-.096-.72-2.447-3.783-2.447-3.086 0-3.777 2.425-3.783 2.45-.276 1.037-.218 2.158-.218 2.17.013.22-.142.417-.36.458-.01.003-.172.046-.25.223-.062.145-.148.585.394 1.57m4.216 4.952c-2.435 0-4.136-2.923-4.542-4.117l-.07-.043c-.158-.098-.263-.163-.332-.286-.585-1.034-.74-1.862-.46-2.46.134-.287.337-.46.516-.564 0-.447.032-1.3.252-2.13.01-.034.88-3.105 4.636-3.105 3.755 0 4.627 3.072 4.636 3.103.22.83.253 1.686.253 2.133.178.103.382.277.515.563.28.598.126 1.426-.46 2.46-.068.122-.173.186-.332.285l-.07.043c-.407 1.196-2.108 4.117-4.54 4.117"/><path d="M13.097 13.284c-.07 0-.138-.016-.203-.05-.896-.464-1.162-.917-1.206-1.003-.112-.215-.026-.48.19-.592.215-.11.475-.028.59.18.012.02.205.308.833.633.217.114.3.38.19.596-.08.15-.234.238-.393.238M10.142 20.754c-5.078 0-9.73-.844-9.78-.853-.217-.04-.372-.233-.362-.454.21-4.396 2.953-5.762 4.998-6.406 1.593-.502 2.427-1.315 2.435-1.324.173-.17.453-.17.624.003.172.172.17.45-.002.623-.04.04-.996.972-2.792 1.538-1.992.63-4.05 1.745-4.355 5.22 1.323.216 5.83.883 10.412.756.247-.006.447.185.454.43.006.242-.186.445-.43.45-.402.013-.803.018-1.202.018M13.98 15.006v4.85h5.3v-4.85h-5.3zm5.3 5.732h-5.3c-.486 0-.882-.396-.882-.882v-4.85c0-.486.396-.882.883-.882h5.3c.486 0 .882.396.882.882v4.85c0 .486-.396.882-.883.882z"/><path d="M19.28 17.21h-5.3c-.243 0-.44-.197-.44-.44 0-.244.197-.44.44-.44h5.3c.243 0 .44.196.44.44 0 .243-.197.44-.44.44M15.305 15.888c-.244 0-.44-.198-.44-.44v-1.765c0-.243.196-.44.44-.44.245 0 .442.197.442.44v1.764c0 .243-.197.44-.442.44M17.954 15.888c-.244 0-.44-.198-.44-.44v-1.765c0-.243.196-.44.44-.44s.442.197.442.44v1.764c0 .243-.198.44-.442.44"/></g></svg>