<svg xmlns="http://www.w3.org/2000/svg" xmlns:xlink="http://www.w3.org/1999/xlink" width="127" height="127" viewBox="0 0 127 127"><defs><circle id="b" cx="61.5" cy="61.5" r="61.5"/><filter id="a" width="106.5%" height="106.5%" x="-3.3%" y="-1.6%" filterUnits="objectBoundingBox"><feOffset dy="2" in="SourceAlpha" result="shadowOffsetOuter1"/><feGaussianBlur in="shadowOffsetOuter1" result="shadowBlurOuter1" stdDeviation="1"/><feColorMatrix in="shadowBlurOuter1" values="0 0 0 0 0 0 0 0 0 0 0 0 0 0 0 0 0 0 0.05 0"/></filter></defs><g fill="none" fill-rule="evenodd" transform="translate(2)"><use fill="#000" filter="url(#a)" xlink:href="#b"/><use fill="#E04F5F" xlink:href="#b"/><path stroke="#FFF" stroke-linecap="round" stroke-width="7" d="M37.52 83.21H84.5"/><path d="M37.515 49.2c2.206 0 4.09-.782 5.652-2.342 1.562-1.56 2.343-3.446 2.343-5.652 0-2.207-.78-4.092-2.343-5.654-1.56-1.56-3.446-2.342-5.652-2.342s-4.09.782-5.653 2.342c-1.56 1.563-2.342 3.447-2.342 5.654 0 2.206.78 4.09 2.342 5.652 1.562 1.56 3.447 2.342 5.653 2.342m47.97-15.99c-2.206 0-4.09.78-5.653 2.342-1.56 1.562-2.342 3.446-2.342 5.652 0 2.207.782 4.093 2.342 5.654 1.562 1.56 3.447 2.342 5.654 2.342 2.205 0 4.09-.782 5.652-2.342 1.56-1.56 2.342-3.447 2.342-5.654 0-2.206-.78-4.09-2.342-5.652-1.563-1.56-3.447-2.342-5.652-2.342" fill="#FFF"/></g></svg>