<svg width="19" height="21" viewBox="0 0 19 21" xmlns="http://www.w3.org/2000/svg"><title>Notebook icon</title><g fill="#E11D24" fill-rule="evenodd"><path d="M.364 15.947c-.202 0-.364-.17-.364-.38 0-1.05.82-1.904 1.827-1.904 1.006 0 1.827.854 1.827 1.905 0 .21-.165.38-.366.38-.202 0-.366-.17-.366-.38 0-.63-.492-1.145-1.095-1.145-.605 0-1.098.514-1.098 1.145 0 .21-.165.38-.366.38zm0-2.284c-.202 0-.364-.172-.364-.38 0-1.052.82-1.905 1.827-1.905 1.006 0 1.827.853 1.827 1.904 0 .21-.165.38-.366.38-.202 0-.366-.17-.366-.38 0-.63-.492-1.144-1.095-1.144-.605 0-1.098.514-1.098 1.144 0 .21-.165.38-.366.38zm0-2.285c-.202 0-.364-.17-.364-.38 0-1.05.82-1.904 1.827-1.904 1.006 0 1.827.853 1.827 1.903 0 .21-.165.38-.366.38-.202 0-.366-.17-.366-.38 0-.63-.492-1.14-1.095-1.14-.605 0-1.098.51-1.098 1.14 0 .21-.165.38-.366.38zm0-2.284c-.202 0-.364-.17-.364-.38C0 7.663.82 6.81 1.827 6.81c1.006 0 1.827.855 1.827 1.903 0 .21-.165.38-.366.38-.202 0-.366-.17-.366-.38 0-.63-.492-1.14-1.095-1.14-.605 0-1.098.51-1.098 1.14 0 .21-.165.38-.366.38zM.73 6.43c0 .21-.165.38-.366.38C.162 6.81 0 6.64 0 6.43c0-1.05.82-1.904 1.827-1.904 1.006 0 1.827.855 1.827 1.903 0 .21-.165.38-.366.38-.202 0-.366-.17-.366-.38 0-.63-.492-1.142-1.095-1.142-.605 0-1.098.513-1.098 1.14z"/><path d="M17.593.002H5.98V0H1.407v2.57C.605 2.74 0 3.47 0 4.347c0 .2.156.36.35.36.195 0 .352-.16.352-.36 0-.6.475-1.088 1.057-1.088.58 0 1.054.488 1.054 1.088 0 .2.158.36.352.36.194 0 .353-.16.353-.36 0-.875-.608-1.605-1.41-1.775V.726h3.168v19.552h-3.17v-2.535c0-.2-.155-.363-.35-.363-.193 0-.35.162-.35.362v.657C.997 18.25.7 17.85.7 17.38c0-.598.475-1.086 1.057-1.086.58 0 1.054.488 1.054 1.085 0 .2.158.362.352.362.194 0 .353-.16.353-.363 0-.998-.792-1.81-1.76-1.81-.97 0-1.76.812-1.76 1.81 0 .874.605 1.605 1.407 1.774V21h16.186C18.37 21 19 20.35 19 19.554V1.448C19 .65 18.37.002 17.593.002zM5.98 20.277h8.445V.725H5.98v19.552zm9.15 0h1.054V.725H15.13v19.552zm3.165-.723c0 .398-.314.723-.702.723h-.705V.725h.705c.388 0 .702.325.702.723v18.106z"/></g></svg>