<svg xmlns="http://www.w3.org/2000/svg" width="438.533" height="438.533" viewBox="0 0 438.533 438.533"><path fill="#FFF" d="M375.72 227.26c-5.33-5.332-11.8-7.993-19.416-7.993H146.176v-91.36c0-20.18 7.14-37.402 21.415-51.678 14.278-14.274 31.502-21.412 51.68-21.412 20.174 0 37.4 7.137 51.672 21.41 14.277 14.277 21.416 31.5 21.416 51.68 0 4.946 1.807 9.228 5.42 12.844 3.62 3.617 7.905 5.426 12.847 5.426h18.28c4.946 0 9.228-1.81 12.85-5.426 3.605-3.616 5.42-7.898 5.42-12.845 0-35.216-12.516-65.33-37.542-90.362C284.603 12.513 254.48 0 219.27 0c-35.215 0-65.335 12.513-90.367 37.544C103.875 62.572 91.36 92.69 91.36 127.906v91.36h-9.134c-7.61 0-14.084 2.667-19.414 7.992-5.33 5.325-7.994 11.8-7.994 19.414v164.452c0 7.617 2.665 14.09 7.994 19.417 5.33 5.326 11.803 7.992 19.414 7.992h274.078c7.617 0 14.092-2.666 19.417-7.99 5.326-5.33 7.995-11.8 7.995-19.418v-164.45c.004-7.615-2.662-14.083-7.994-19.415z"/></svg>