<svg xmlns="http://www.w3.org/2000/svg" width="40" height="39" viewBox="0 0 40 39"><path fill="#E11D24" fill-rule="evenodd" d="M19.55 0C8.75 0 0 8.73 0 19.5 0 30.268 8.75 39 19.55 39c10.797 0 19.55-8.732 19.55-19.5C39.1 8.73 30.344 0 19.55 0zm0 3.656c8.773 0 15.88 7.093 15.88 15.844 0 8.75-7.106 15.844-15.88 15.844-8.775 0-15.885-7.093-15.885-15.844 0-8.75 7.11-15.844 15.884-15.844zm-.74 7.596l-6.982 7.046c-1.078.66-1.078 1.743 0 2.403l6.983 7.05c1.078.658 1.96.12 1.96-1.205v-3.388h6.11c.676 0 1.222-.546 1.222-1.22v-4.874c0-.673-.546-1.22-1.222-1.22h-6.11v-3.388c0-1.324-.882-1.864-1.96-1.203z"/></svg>