<svg xmlns="http://www.w3.org/2000/svg" width="39" height="40" viewBox="0 0 39 40"><path fill="#FFF" fill-rule="evenodd" d="M19.5.156C8.73.156 0 8.886 0 19.656c0 10.768 8.73 19.5 19.5 19.5S39 30.424 39 19.656c0-10.77-8.732-19.5-19.5-19.5zm0 3.656c8.75 0 15.84 7.093 15.84 15.844 0 8.75-7.088 15.844-15.84 15.844-8.752 0-15.844-7.093-15.844-15.844 0-8.75 7.093-15.844 15.844-15.844zm-.736 7.596l-6.966 7.046c-1.075.66-1.075 1.743 0 2.403l6.966 7.048c1.073.66 1.955.12 1.955-1.204v-3.387h6.092c.674 0 1.22-.546 1.22-1.22V17.22c0-.674-.546-1.22-1.22-1.22H20.72v-3.39c0-1.323-.883-1.863-1.956-1.202z"/></svg>