<svg xmlns="http://www.w3.org/2000/svg" width="84" height="84" viewBox="0 0 84 84" xmlns:xlink="http://www.w3.org/1999/xlink"><defs><circle id="b" cx="40" cy="40" r="40"/><filter id="a" width="200%" height="200%" x="-50%" y="-50%" filterUnits="objectBoundingBox"><feOffset dy="2" in="SourceAlpha" result="shadowOffsetOuter1"/><feGaussianBlur stdDeviation="1" in="shadowOffsetOuter1" result="shadowBlurOuter1"/><feColorMatrix values="0 0 0 0 0 0 0 0 0 0 0 0 0 0 0 0 0 0 0.0528475996 0" in="shadowBlurOuter1"/></filter></defs><g fill="none" fill-rule="evenodd" transform="translate(2)"><use fill="#000" filter="url(#a)" xlink:href="#b"/><use fill="#FFF" xlink:href="#b"/><path fill="#4990E2" d="M53.342 35.304c-.218-.425-1.283-1.4-3.08-.515-1.797.884-.928 2.826-.928 2.826.67 1.373 1.046 2.915 1.046 4.546 0 5.734-4.647 10.38-10.38 10.38-5.733 0-10.38-4.646-10.38-10.38 0-5.366 4.07-9.78 9.29-10.324v2.69s-.007.16.16.263c.167.102.334 0 .334 0l8.612-5.073s.193-.102.193-.3c0-.164-.194-.28-.194-.28l-8.584-5.046s-.195-.14-.37-.07c-.173.066-.15.303-.15.303v2.882C31.134 27.763 25 34.243 25 42.162c0 8.284 6.716 15 15 15 8.284 0 15-6.716 15-15 0-2.472-.598-4.803-1.658-6.858z"/></g></svg>