<svg xmlns="http://www.w3.org/2000/svg" width="211" height="129" viewBox="0 0 211 129" xmlns:xlink="http://www.w3.org/1999/xlink"><defs><path id="a" d="M0 .513V129h210.848V.513H0z"/></defs><g fill="none" fill-rule="evenodd"><mask id="b" fill="#fff"><use xlink:href="#a"/></mask><path fill="#E11C24" d="M12.514.513c2.024 0 3.81.37 5.86 1.478 22.355 8.655 52.263 13.997 86.842 13.997 34.58 0 67.182-5.664 89.748-15.008-.01.054.01-.055 0 0 1.072-.305 2.202-.467 3.37-.467 6.91 0 12.514 5.692 12.514 12.71V116.29c0 7.018-5.604 12.71-12.514 12.71-2.012 0-3.796-.428-5.583-1.334-22.41-8.812-53.356-14.265-87.534-14.265-33.502 0-63.9 5.24-86.197 13.75-1.207.746-3.186 1.48-6.6 1.85C5.554 128.947 0 123.275 0 116.29V13.223C0 6.204 5.604.514 12.514.514" mask="url(#b)"/><path fill="#FEFEFE" d="M86.107 87.802V49.818H96.64v7.002c1.043-2.918 7.75-9.393 11.924-7.014l-.407 11.152c-8.73-.997-11.206 4.614-11.206 12.06v14.784H86.108zM141.73 58.59c-1.222.047-2.343.317-3.362.812-1.02.495-1.936 1.215-2.752 2.158-.816.943-1.427 2.016-1.834 3.218-.408 1.203-.612 2.558-.612 4.068 0 1.508.204 2.888.612 4.138.407 1.25 1.018 2.345 1.834 3.29.866.988 1.81 1.72 2.828 2.192 1.02.47 2.115.707 3.287.707 1.275 0 2.422-.236 3.44-.707 1.02-.472 1.937-1.204 2.753-2.193.866-.944 1.503-2.04 1.91-3.29.408-1.25.613-2.63.613-4.137 0-1.51-.205-2.865-.612-4.068-.408-1.202-1.02-2.275-1.834-3.218-.816-.943-1.746-1.663-2.79-2.158-1.046-.495-2.205-.742-3.48-.742v-.07zm27.83 7.214h15.288c-.133-1.18-.4-2.24-.8-3.183-.402-.943-.958-1.744-1.67-2.404-.668-.66-1.446-1.156-2.337-1.486-.89-.33-1.868-.495-2.936-.495-1.068 0-2.036.165-2.904.495-.87.33-1.636.85-2.304 1.557-.71.707-1.257 1.52-1.635 2.44-.377.92-.61 1.97-.7 3.148v-.07zm23.418 15.66c-2.573 3.358-5.903 5.69-9.37 6.586-1.734.448-3.635.672-5.7.672-2.768 0-5.257-.436-7.467-1.31-2.21-.87-4.16-2.203-5.855-3.996-1.652-1.79-2.902-3.878-3.75-6.26-.14-.395-.27-.8-.386-1.21-.072.254-.145.504-.224.75-.362 1.18-.826 2.264-1.392 3.255-.566.99-1.233 1.958-2.002 2.9-.86.897-1.765 1.698-2.715 2.406-.95.707-1.947 1.32-2.988 1.84-1.086.47-2.195.812-3.327 1.024-1.13.213-2.285.32-3.462.32-1.266 0-2.442-.12-3.53-.355-1.085-.236-2.103-.613-3.054-1.132-.905-.52-1.674-1.155-2.308-1.91-.634-.754-1.13-1.58-1.493-2.475v5.234H122.55V36.524h11.744v18.528c.362-.896.826-1.71 1.392-2.44.565-.73 1.28-1.332 2.138-1.804.86-.518 1.8-.896 2.817-1.132 1.02-.235 2.14-.353 3.36-.353 1.178 0 2.332.106 3.464.318 1.13.214 2.218.58 3.258 1.097 1.04.472 2.037 1.06 2.987 1.77.95.706 1.854 1.53 2.714 2.474.815.898 1.527 1.853 2.14 2.866.61 1.014 1.118 2.134 1.526 3.36.118.343.228.69.33 1.042.116-.427.245-.845.385-1.254.827-2.405 2.066-4.55 3.718-6.437 1.653-1.84 3.563-3.218 5.733-4.138 2.168-.92 4.615-1.38 7.342-1.38 10.71 0 19.043 10.646 17.26 23.668l-25.033.07c.286 4.26 3.76 6.465 8.207 6.465 1.4 0 5.315.623 8.838-3.512l6.108 5.735zm-107.756.14c-4.09 4.736-8 7.118-14.2 7.118-2.878 0-5.467-.436-7.77-1.31-2.3-.87-4.358-2.227-6.173-4.066-1.635-1.698-2.882-3.635-3.743-5.814-.442 1.46-1.17 2.877-2.266 4.164-5.23 6.14-12.16 7.867-20.177 6.418-8.017-1.45-13.536-6.42-14.115-6.975-.578-.555-.782-.797-.782-.797l6.328-7.752s6.327 5.725 12.17 6.14c5.843.413 8.017-1.796 8.764-4.21.747-2.416-3.193-5.107-7.202-5.866-4.008-.76-12.433-3.174-15.558-6.694S16.15 48.297 21.925 42.5c5.775-5.796 16.917-4.553 20.994-3.587 4.075.965 8.355 4.14 9.314 5.258L46.93 52.6s-4.35-3.75-9.107-4.717c-4.756-.966-8.696.62-9.036 3.174-.34 2.554.475 4.83 6.862 6.418 6.385 1.587 11.685 3.45 14.606 6.21.588.557 1.186 1.37 1.72 2.367.193-1.86.576-3.593 1.153-5.2.862-2.405 2.18-4.503 3.95-6.295 1.814-1.84 3.87-3.218 6.173-4.138 8.123-3.246 16.862-.91 21.843 5.586l-6.294 7.1c-5.903-6.92-16.074-4.56-16.643 5.12-.57 9.655 9.858 16.292 17.034 6.536l6.028 6.84zm105.957-37.25h.48c.31 0 .504-.013.58-.04.078-.027.14-.073.183-.138.044-.065.066-.146.066-.244 0-.11-.03-.198-.088-.266-.058-.067-.14-.11-.243-.127-.055-.01-.212-.013-.475-.013h-.506v.827zm-.65 1.882v-3.26h1.365c.343 0 .593.03.748.088.156.058.28.162.373.31.094.152.14.322.14.515 0 .244-.07.446-.21.605-.143.16-.354.26-.636.302.14.083.256.175.347.274.09.1.214.276.368.53l.393.636h-.775l-.47-.71c-.166-.253-.28-.413-.34-.48-.062-.065-.127-.11-.195-.135-.07-.023-.178-.035-.327-.035h-.13v1.36h-.65zm1.28-4.755c1.518 0 2.75 1.4 2.75 3.126 0 1.725-1.232 3.124-2.75 3.124-1.517 0-2.75-1.4-2.75-3.124 0-1.726 1.233-3.125 2.75-3.125zm0-.773c1.895 0 3.432 1.746 3.432 3.9 0 2.15-1.537 3.898-3.432 3.898-1.894 0-3.43-1.747-3.43-3.9 0-2.152 1.536-3.898 3.43-3.898zm-71.03 46.955h-10.844v-22.9s9.474-1.17 10.413-7.672h.383l.047 30.572z" mask="url(#b)"/><path fill="#94C83D" d="M109.936 61.772s3.33-.694 4.438-2.514c0 0-2.816-2.688-2.73-7.803.084-5.115 5.888-8.843 5.888-8.843s.77-.433.94-2.167c0 0 3.328 4.94 2.133 9.97-1.195 5.028-3.073 7.802-5.036 9.276 0 0-3.074 2.428-5.634 2.082" mask="url(#b)"/></g></svg>