<svg width="21" height="22" viewBox="0 0 21 22" xmlns="http://www.w3.org/2000/svg" xmlns:xlink="http://www.w3.org/1999/xlink"><title>search icon</title><defs><path d="M19.99 23.28l-4.197-4.378c1.18-1.567 1.89-3.538 1.89-5.68 0-5.087-3.965-9.226-8.84-9.226C3.966 3.996 0 8.136 0 13.222c0 5.085 3.966 9.224 8.843 9.224 1.91 0 3.676-.643 5.124-1.722l4.236 4.42c.247.258.57.386.894.386.323 0 .646-.128.893-.385.493-.515.493-1.348 0-1.864zM2.525 13.223c0-3.634 2.835-6.59 6.318-6.59 3.482 0 6.315 2.956 6.315 6.59 0 3.633-2.833 6.588-6.315 6.588-3.483 0-6.318-2.955-6.318-6.588z" id="a"/></defs><g transform="translate(0 -4)" fill="none" fill-rule="evenodd"><use fill-opacity=".61" fill="#989898" xlink:href="#a"/><path stroke="#FFF" stroke-width=".6" d="M19.773 23.49L15.4 18.925l.154-.204c1.178-1.564 1.83-3.483 1.83-5.5 0-4.924-3.835-8.926-8.54-8.926-4.71 0-8.544 4-8.544 8.926 0 4.923 3.835 8.924 8.543 8.924 1.79 0 3.502-.587 4.945-1.663l.212-.158.184.19 4.236 4.422c.183.19.425.293.677.293.25 0 .493-.102.676-.293.382-.398.382-1.05 0-1.448zM2.225 13.22c0-3.796 2.966-6.89 6.618-6.89 3.65 0 6.615 3.093 6.615 6.89 0 3.796-2.964 6.888-6.615 6.888-3.652 0-6.618-3.093-6.618-6.888z"/></g></svg>