<svg width="21" height="21" viewBox="0 0 21 21" xmlns="http://www.w3.org/2000/svg"><title>Settings icon</title><g fill="#E11D24" fill-rule="evenodd"><path d="M6.052 16.947c.086 0 .173.024.248.073.79.51 1.652.868 2.56 1.064.18.04.32.183.353.365l.23 1.262c.04.217.23.375.45.375h1.215c.22 0 .41-.158.45-.375l.228-1.263c.033-.183.173-.327.353-.366.908-.196 1.77-.554 2.56-1.064.155-.102.356-.098.508.008l1.06.733c.176.124.43.1.58-.05l.86-.86c.157-.157.18-.402.053-.583l-.732-1.06c-.105-.152-.108-.352-.01-.507.512-.79.87-1.653 1.066-2.56.038-.18.182-.32.364-.354l1.264-.23c.217-.04.375-.228.375-.448V9.892c0-.22-.158-.41-.375-.45l-1.264-.228c-.182-.034-.326-.173-.364-.354-.196-.907-.554-1.77-1.065-2.56-.1-.155-.097-.356.008-.508l.733-1.06c.127-.18.105-.425-.05-.58l-.86-.86c-.153-.152-.406-.176-.583-.053l-1.06.732c-.15.106-.35.11-.507.008-.79-.51-1.652-.868-2.56-1.064-.18-.038-.32-.183-.354-.364l-.23-1.264c-.04-.217-.228-.375-.448-.375H9.892c-.22 0-.41.158-.45.375l-.23 1.264c-.03.18-.17.326-.35.364-.91.196-1.77.554-2.562 1.064-.155.1-.356.098-.507-.008l-1.06-.733c-.177-.124-.43-.1-.582.052l-.86.86c-.155.155-.177.4-.05.58l.732 1.06c.106.152.11.353.008.508-.51.79-.868 1.653-1.064 2.56-.04.18-.182.32-.364.354l-1.264.23c-.218.038-.375.227-.375.448v1.216c0 .22.157.41.375.45l1.264.228c.182.034.325.173.364.354.196.907.554 1.77 1.064 2.56.1.155.098.355-.008.507l-.733 1.06c-.127.18-.105.426.05.582l.86.86c.153.15.406.173.584.05l1.06-.732c.077-.054.168-.08.258-.08M11.108 21H9.892c-.662 0-1.228-.473-1.347-1.124l-.176-.97c-.81-.204-1.582-.525-2.304-.957l-.813.562c-.532.367-1.292.298-1.748-.158l-.86-.86c-.467-.467-.534-1.203-.157-1.747l.563-.813c-.43-.722-.752-1.495-.956-2.303l-.97-.175C.475 12.337 0 11.77 0 11.108V9.892c0-.662.473-1.23 1.125-1.347l.97-.176c.203-.81.524-1.58.956-2.304l-.562-.813c-.377-.545-.31-1.28.158-1.748l.86-.86c.455-.455 1.216-.524 1.747-.157l.813.563c.722-.43 1.495-.752 2.303-.956l.175-.97C8.665.475 9.23 0 9.892 0h1.216c.66 0 1.228.473 1.347 1.124l.176.97c.81.204 1.58.525 2.304.957l.813-.562c.532-.367 1.292-.298 1.748.158l.86.86c.468.467.534 1.202.157 1.747l-.563.813c.43.723.752 1.495.956 2.303l.97.175c.65.118 1.124.685 1.124 1.347v1.216c0 .662-.473 1.23-1.125 1.347l-.97.176c-.203.81-.524 1.582-.956 2.304l.562.813c.377.544.31 1.28-.158 1.748l-.86.86c-.258.257-.602.4-.968.4-.28 0-.55-.084-.78-.243l-.812-.563c-.722.43-1.495.752-2.303.956l-.175.97c-.12.65-.686 1.124-1.347 1.124"/><path d="M10.5 7.304c-1.762 0-3.196 1.434-3.196 3.196 0 1.762 1.434 3.196 3.196 3.196 1.762 0 3.196-1.434 3.196-3.196 0-1.762-1.434-3.196-3.196-3.196m0 7.305c-2.265 0-4.11-1.844-4.11-4.11s1.845-4.11 4.11-4.11c2.265 0 4.11 1.844 4.11 4.11s-1.845 4.11-4.11 4.11"/></g></svg>