<svg xmlns="http://www.w3.org/2000/svg" width="29" height="32" viewBox="0 0 29 32"><g fill="none" fill-rule="evenodd"><path stroke="#FFF" stroke-width="4" d="M2.5 19.23v5.02c0 2.902 2.348 5.25 5.247 5.25h13.506c2.9 0 5.247-2.348 5.247-5.25V17l2.018 2-26.018.23z"/><circle cx="2.5" cy="17" r="2" fill="#FFF"/><circle cx="26.5" cy="17" r="2" fill="#FFF"/><path fill="#FFF" d="M12.5 6.032l-4 2.905c-.78.567-1.868.398-2.44-.39-.568-.78-.39-1.878.384-2.44L13.332 1.1c.298-.216.642-.325.985-.333.26-.025.516.02.74.145.213.093.41.23.577.41l6.97 5.063c.63.46.686 1.46.114 2.247-.568.78-1.538 1.046-2.172.585L16 5.914V20.24c0 .973-.777 1.76-1.75 1.76-.966 0-1.75-.785-1.75-1.76V6.033z"/></g></svg>