<svg width="21" height="22" viewBox="0 0 21 22" xmlns="http://www.w3.org/2000/svg"><title>Stats icon</title><g fill="#E11D24" fill-rule="evenodd"><path d="M17.675 12.298c-.15 2.094-1.082 4.04-2.624 5.48-1.55 1.45-3.568 2.247-5.684 2.247-4.595 0-8.333-3.738-8.333-8.333 0-2.117.798-4.136 2.246-5.685 1.44-1.542 3.386-2.474 5.48-2.625l.09-.006v8.316c0 .285.23.517.516.517h8.316l-.007.088zm.54-1.122H9.88V2.843c0-.285-.23-.516-.516-.516C4.2 2.327 0 6.527 0 11.692c0 5.164 4.2 9.366 9.366 9.366 5.164 0 9.365-4.202 9.365-9.366 0-.285-.23-.516-.516-.516z"/><path d="M19.95 8.91h-7.8v-7.8l.088.006c2.186.158 4.188 1.152 5.64 2.797 1.196 1.352 1.93 3.095 2.064 4.906l.007.09zM11.63.055c-.285 0-.516.23-.516.516v8.85c0 .284.23.516.516.516h8.85c.284 0 .516-.232.516-.517v-.03c-.01-2.272-.84-4.462-2.344-6.167-1.78-2.013-4.34-3.167-7.022-3.167z"/></g></svg>