<svg width="84" height="84" viewBox="0 0 84 84" xmlns="http://www.w3.org/2000/svg" xmlns:xlink="http://www.w3.org/1999/xlink"><title>Undo</title><defs><circle id="b" cx="40" cy="40" r="40"/><filter x="-5%" y="-2.5%" width="110%" height="110%" filterUnits="objectBoundingBox" id="a"><feOffset dy="2" in="SourceAlpha" result="shadowOffsetOuter1"/><feGaussianBlur stdDeviation="1" in="shadowOffsetOuter1" result="shadowBlurOuter1"/><feColorMatrix values="0 0 0 0 0 0 0 0 0 0 0 0 0 0 0 0 0 0 0.05 0" in="shadowBlurOuter1"/></filter></defs><g fill="none" fill-rule="evenodd"><g transform="translate(2)"><use fill="#000" filter="url(#a)" xlink:href="#b"/><use fill="#FFF" xlink:href="#b"/></g><path d="M25.107 33.37c.278-.54 1.632-1.777 3.916-.653 2.285 1.124 1.18 3.593 1.18 3.593-.85 1.746-1.33 3.707-1.33 5.78 0 7.29 5.91 13.198 13.198 13.198 7.29 0 13.198-5.91 13.198-13.197 0-6.82-5.176-12.433-11.813-13.125v3.42s.01.205-.203.334c-.212.128-.424 0-.424 0l-10.95-6.452s-.244-.13-.244-.382c0-.208.245-.356.245-.356l10.912-6.415s.248-.178.47-.09c.22.085.193.385.193.385v3.665c9.885.71 17.685 8.948 17.685 19.016 0 10.532-8.538 19.07-19.07 19.07C31.54 61.16 23 52.622 23 42.09c0-3.142.76-6.106 2.107-8.72z" fill="#4A90E2"/></g></svg>