<?xml version="1.0" encoding="UTF-8"?>
<svg width="21px" height="20px" viewBox="0 0 21 20" version="1.1" xmlns="http://www.w3.org/2000/svg" xmlns:xlink="http://www.w3.org/1999/xlink">
    <!-- Generator: Sketch 46.2 (44496) - http://www.bohemiancoding.com/sketch -->
    <title>Icons/05</title>
    <desc>Created with Sketch.</desc>
    <defs></defs>
    <g id="Symbols" stroke="none" stroke-width="1" fill="none" fill-rule="evenodd">
        <g id="Icons/05" fill="#E11D24">
            <g id="Logout" transform="translate(0.000000, 2.000000)">
                <path d="M0,2.69373553 L0,13.4598937 C0,14.9436171 1.17908745,16.1538462 2.62442046,16.1538462 L11.102017,16.1538462 C12.54735,16.1538462 13.7264375,14.9436171 13.7264375,13.4598937 L13.7264375,11.7161229 C13.7264375,11.4212651 13.4940537,11.1825811 13.2066247,11.1825811 C12.9191957,11.1825811 12.686812,11.4212651 12.686812,11.7161229 L12.686812,13.4598937 C12.686812,14.3579682 11.9726505,15.0909918 11.0976852,15.0909918 L2.62442046,15.0909918 C1.74966647,15.0909918 1.03550503,14.3579682 1.03550503,13.4598937 L1.03550503,2.69373553 C1.03550503,1.79587791 1.74966647,1.06285435 2.62442046,1.06285435 L11.102017,1.06285435 C11.976771,1.06285435 12.6909324,1.79587791 12.6909324,2.69373553 L12.6909324,4.43750636 C12.6909324,4.73252679 12.9235275,4.97104818 13.2107452,4.97104818 C13.498227,4.97104818 13.7307692,4.73252679 13.7307692,4.43750636 L13.7307692,2.69373553 C13.7307692,1.21022901 12.5516818,0 11.1061375,0 L2.62442046,0 C1.17908745,0 0,1.20578282 0,2.69373553" id="Fill-1"></path>
                <path d="M16.5250398,11.9642321 C16.6273167,12.0649304 16.7595621,12.1153846 16.8962334,12.1153846 C17.0326915,12.1153846 17.1649369,12.0649304 17.2672137,11.9642321 L20.8464247,8.4402615 C21.0511918,8.23865474 21.0511918,7.91524391 20.8464247,7.71363716 L17.2672137,4.1896666 C17.0624467,3.98805985 16.7339662,3.98805985 16.5291991,4.1896666 C16.324432,4.39127336 16.324432,4.71468419 16.5291991,4.91629095 L19.2168735,7.56248459 L9.40933099,7.56248459 C9.11935096,7.56248459 8.88461538,7.79343983 8.88461538,8.0791019 C8.88461538,8.36455396 9.11935096,8.59571921 9.40933099,8.59571921 L19.2125008,8.59571921 L16.5250398,11.2417028 C16.3202727,11.4392145 16.3202727,11.7667204 16.5250398,11.9642321" id="Fill-4"></path>
            </g>
        </g>
    </g>
</svg>