<?xml version="1.0" encoding="UTF-8"?>
<svg width="16px" height="17px" viewBox="0 0 16 17" version="1.1" xmlns="http://www.w3.org/2000/svg" xmlns:xlink="http://www.w3.org/1999/xlink">
    <!-- Generator: Sketch 48.1 (47250) - http://www.bohemiancoding.com/sketch -->
    <title>Age Icon</title>
    <desc>Created with Sketch.</desc>
    <defs></defs>
    <g id="Estadísticas" stroke="none" stroke-width="1" fill="none" fill-rule="evenodd" transform="translate(-557.000000, -359.000000)">
        <g id="Graph" transform="translate(159.000000, 320.000000)" fill="#E4D6F9">
            <g id="Black-01">
                <g id="Edades" transform="translate(396.000000, 28.000000)">
                    <g id="Title" transform="translate(2.000000, 9.240000)">
                        <g id="Age-Icon" transform="translate(0.000000, 2.053333)">
                            <polygon id="Fill-1" points="5 11.2933333 5 6.38991017 4 6.38991017 4 5.13333333 6 5.13333333 6 11.2933333"></polygon>
                            <path d="M11.7420689,6.75087689 C11.7420689,7.27565273 11.5121739,7.74014118 11.1289791,7.99816045 C11.6654735,8.27358712 12,8.84984583 12,9.52093789 C12,10.6049683 11.2193476,11.2933333 10.0000272,11.2933333 C8.78043469,11.2933333 8,10.6135712 8,9.54688095 C8,8.85851592 8.36239912,8.27358712 8.92698395,7.99816045 C8.51569879,7.71439975 8.25096289,7.23263832 8.25096289,6.70779527 C8.25096289,5.74427242 8.93400656,5.13333333 9.99300461,5.13333333 C11.0662656,5.13333333 11.7420689,5.76134376 11.7420689,6.75087689 Z M9.17065204,9.39202907 C9.17065204,9.89946472 9.46347837,10.1835615 10.0000272,10.1835615 C10.5365216,10.1835615 10.8361528,9.90813481 10.8361528,9.39202907 C10.8361528,8.89319629 10.5365216,8.60909954 10.0000272,8.60909954 C9.46347837,8.60909954 9.17065204,8.89292745 9.17065204,9.39202907 Z M9.29613348,6.83670409 C9.29613348,7.26698264 9.54704193,7.50772893 10.0000272,7.50772893 C10.4529581,7.50772893 10.7038665,7.26698264 10.7038665,6.83670409 C10.7038665,6.38962303 10.4529581,6.13993781 10.0000272,6.13993781 C9.54704193,6.13993781 9.29613348,6.38962303 9.29613348,6.83670409 Z" id="Fill-2"></path>
                            <path d="M14.2486906,6.04059574 C14.478878,6.73858656 14.5957657,7.46885766 14.5957657,8.21342699 C14.5957657,11.9472627 11.6369607,14.9850431 8.00012163,14.9850431 C4.36303926,14.9850431 1.40423429,11.9472627 1.40423429,8.21342699 C1.40423429,4.479404 4.36303926,1.44162358 7.99987837,1.44162358 C8.72540956,1.44162358 9.43664906,1.5616288 10.1163252,1.79820517 L10.1163252,0.291209337 C9.42977688,0.0980271568 8.72042267,0 8.00012163,0 C3.58885552,0 0,3.68450991 0,8.21342699 C0,12.7421568 3.58885552,16.4266667 8.00012163,16.4266667 C12.4111445,16.4266667 16,12.7421568 16,8.21342699 C16,7.4737278 15.9045194,6.74570446 15.7163556,6.04059574 L14.2486906,6.04059574 Z" id="Fill-3"></path>
                            <polygon id="Fill-4" points="14.5256543 2.53701127 14.5256543 1.02666667 13.4654606 1.02666667 13.4654606 2.53701127 12 2.53701127 12 3.62298873 13.4654606 3.62298873 13.4654606 5.13333333 14.5256543 5.13333333 14.5256543 3.62298873 16 3.62298873 16 2.53701127"></polygon>
                        </g>
                    </g>
                </g>
            </g>
        </g>
    </g>
</svg>