<?xml version="1.0" encoding="UTF-8"?>
<svg width="41px" height="41px" viewBox="0 0 41 41" version="1.1" xmlns="http://www.w3.org/2000/svg" xmlns:xlink="http://www.w3.org/1999/xlink">
    <!-- Generator: Sketch 46.2 (44496) - http://www.bohemiancoding.com/sketch -->
    <title>Arrow right</title>
    <desc>Created with Sketch.</desc>
    <defs></defs>
    <g id="Scribe-Dashboards" stroke="none" stroke-width="1" fill="none" fill-rule="evenodd">
        <g id="01_Login" transform="translate(-829.000000, -674.000000)" fill="#878787">
            <g id="Forget" transform="translate(570.000000, 674.000000)">
                <g id="Arrow-right" transform="translate(259.000000, 0.000000)">
                    <path d="M20.8850784,40.4396667 C31.9864314,40.4396667 40.9831176,31.4413725 40.9831176,20.3416275 C40.9831176,9.24188235 31.9864314,0.243588235 20.8850784,0.243588235 C9.78533333,0.243588235 0.787039216,9.24188235 0.787039216,20.3416275 C0.787039216,31.4413725 9.78613725,40.4396667 20.8850784,40.4396667 L20.8850784,40.4396667 Z M20.8850784,1.85143137 C31.0804118,1.85143137 39.3752745,10.1462941 39.3752745,20.3416275 C39.3752745,30.5377647 31.0804118,38.8318235 20.8850784,38.8318235 C10.6881373,38.8318235 2.39488235,30.5377647 2.39488235,20.3416275 C2.39488235,10.147098 10.6889412,1.85143137 20.8850784,1.85143137 L20.8850784,1.85143137 Z" id="Shape"></path>
                    <polygon id="Shape" points="22.1054314 28.9821765 23.2421765 30.1189216 33.0178627 20.3416275 23.2421765 10.5651373 22.1054314 11.7018824 29.940451 19.5377059 10.434098 19.5377059 10.434098 21.145549 29.940451 21.145549"></polygon>
                </g>
            </g>
        </g>
    </g>
</svg>