<svg xmlns="http://www.w3.org/2000/svg" width="312" height="390" viewBox="0 0 312 390" xmlns:xlink="http://www.w3.org/1999/xlink">
  <defs>
    <rect id="b" width="239.98" height="342.11" x="19" y="23" rx="7"/>
    <filter id="a" width="114.6%" height="110.2%" x="-7.3%" y="-3.7%" filterUnits="objectBoundingBox">
      <feOffset dy="5" in="SourceAlpha" result="shadowOffsetOuter1"/>
      <feGaussianBlur stdDeviation="5" in="shadowOffsetOuter1" result="shadowBlurOuter1"/>
      <feComposite in="shadowBlurOuter1" in2="SourceAlpha" operator="out" result="shadowBlurOuter1"/>
      <feColorMatrix values="0 0 0 0 0 0 0 0 0 0 0 0 0 0 0 0 0 0 0.3 0" in="shadowBlurOuter1"/>
    </filter>
    <polygon id="c" points=".025 213.289 .025 .002 203.933 .002 203.933 213.289"/>
    <rect id="f" width="239.938" height="342.311" x="19.509" y="22.826" rx="7"/>
    <filter id="e" width="114.6%" height="110.2%" x="-7.3%" y="-3.7%" filterUnits="objectBoundingBox">
      <feOffset dy="5" in="SourceAlpha" result="shadowOffsetOuter1"/>
      <feGaussianBlur stdDeviation="5" in="shadowOffsetOuter1" result="shadowBlurOuter1"/>
      <feComposite in="shadowBlurOuter1" in2="SourceAlpha" operator="out" result="shadowBlurOuter1"/>
      <feColorMatrix values="0 0 0 0 0 0 0 0 0 0 0 0 0 0 0 0 0 0 0.3 0" in="shadowBlurOuter1"/>
    </filter>
  </defs>
  <g fill="none" fill-rule="evenodd" transform="rotate(-8 117.652 46.486)">
    <use fill="black" filter="url(#a)" xlink:href="#b"/>
    <use fill="#FFFFFF" xlink:href="#b"/>
    <rect width="239.48" height="341.61" x="19.25" y="23.25" stroke="#E6E6E6" stroke-width=".5" rx="7"/>
    <rect width="218.29" height="286.989" x="30.485" y="34.514" fill="#50E3C2"/>
    <g transform="translate(37.72 108.06)">
      <g>
        <mask id="d" fill="white">
          <use xlink:href="#c"/>
        </mask>
        <path fill="#648FBE" d="M187.122694,160.951052 L186.367089,160.729848 C175.329921,157.774622 171.590261,154.930208 166.677579,153.062259 C149.254884,146.422791 144.720004,141.645441 143.559909,139.386739 C143.514456,139.302173 143.481512,139.217607 143.442731,139.133041 L143.299283,118.909702 L101.964948,118.441048 L60.6272774,118.909702 L60.4838293,139.133041 C60.4479672,139.217607 60.4154412,139.302173 60.3729072,139.386739 C59.2132289,141.645441 54.6783491,146.423208 37.2493986,153.062259 C32.3367164,154.930208 28.6033114,157.774622 17.5623907,160.729848 L16.8067859,160.951052 C6.75999418,164.270786 3.19744231e-14,173.578454 3.19744231e-14,184.083376 L3.19744231e-14,213.289451 L203.932816,213.289451 L203.932816,184.083376 C203.932816,173.578454 197.169903,164.270786 187.122694,160.951052" mask="url(#d)"/>
        <path fill="#E5C2B3" d="M159.327946,79.7710877 C159.327946,117.002594 123.792003,151.265962 101.964948,151.265962 C80.1345582,151.265962 44.6052864,117.002594 44.6052864,79.7710877 C44.6052864,42.5395811 70.2862587,17.9813005 101.964948,17.9813005 C133.643638,17.9813005 159.327946,42.5395811 159.327946,79.7710877" mask="url(#d)"/>
        <path fill="#884E4D" d="M137.44835,11.8367314 C127.69471,3.01063059 93.8075857,-9.66884404 62.3795133,11.8367314 C37.594675,28.7990748 40.0962606,71.5631931 40.0962606,71.5631931 C40.0962606,71.5631931 72.6185422,79.7710877 109.874613,58.5125448 C133.955971,44.7653732 142.347688,58.7466633 146.661141,70.9187424 C150.856999,82.7650551 159.327529,79.7710877 159.327529,79.7710877 C159.327529,79.7710877 168.658331,40.0659234 137.44835,11.8367314" mask="url(#d)"/>
      </g>
      <path fill="#703D3C" d="M126.684735,52.8370459 C130.08579,52.7329006 132.946413,53.4814966 135.363348,54.8158054 C139.989134,38.0484218 149.098091,33.5380998 153.072523,32.3466783 C151.776068,29.7430473 150.270697,27.132751 148.524716,24.5486993 C142.022428,27.106923 131.740865,34.0584094 126.684735,52.8370459"/>
    </g>
    <g>
      <use fill="black" filter="url(#e)" xlink:href="#f"/>
      <use fill="#7ED321" fill-opacity=".35" xlink:href="#f"/>
    </g>
    <g fill="#66B659" transform="translate(.918 .703)">
      <path d="M32.9231628,60.3464034 L15.3824166,42.8705219 L21.2287095,37.0454141 L32.9231628,48.6963739 L59.232975,22.4819934 L65.0794547,28.3069152 L32.9231628,60.3464034 Z M39.6392113,7.10542736e-15 C17.748113,7.10542736e-15 4.52970994e-14,17.7473697 4.52970994e-14,39.6392113 C4.52970994e-14,61.5312387 17.748113,79.2786084 39.6392113,79.2786084 C61.532911,79.2786084 79.2786084,61.5312387 79.2786084,39.6392113 C79.2786084,17.7473697 61.5319819,7.10542736e-15 39.6392113,7.10542736e-15 L39.6392113,7.10542736e-15 Z"/>
    </g>
  </g>
</svg>
