<svg xmlns="http://www.w3.org/2000/svg" width="249" height="324" viewBox="0 0 249 324" xmlns:xlink="http://www.w3.org/1999/xlink">
  <defs>
    <rect id="a" width="207.059" height="295.404" rx="7"/>
    <filter id="b" width="200%" height="200%" x="-50%" y="-50%" filterUnits="objectBoundingBox">
      <feOffset dy="2" in="SourceAlpha" result="shadowOffsetOuter1"/>
      <feGaussianBlur stdDeviation="1" in="shadowOffsetOuter1" result="shadowBlurOuter1"/>
      <feComposite in="shadowBlurOuter1" in2="SourceAlpha" operator="out" result="shadowBlurOuter1"/>
      <feColorMatrix values="0 0 0 0 0 0 0 0 0 0 0 0 0 0 0 0 0 0 0.112092391 0" in="shadowBlurOuter1"/>
    </filter>
    <mask id="c" width="207.059" height="295.404" x="0" y="0" fill="white">
      <use xlink:href="#a"/>
    </mask>
    <polygon id="d" points=".023 198.647 .023 .004 173.183 .004 173.183 198.647"/>
  </defs>
  <g fill="none" fill-rule="evenodd" transform="rotate(8 26.137 308.716)">
    <use fill="black" filter="url(#b)" xlink:href="#a"/>
    <use fill="#FFFFFF" stroke="#E6E6E6" mask="url(#c)" xlink:href="#a"/>
    <rect width="188.345" height="247.822" x="9.913" y="9.913" fill="#F0A4A4"/>
    <g transform="translate(17.476 58.486)">
      <mask id="e" fill="white">
        <use xlink:href="#d"/>
      </mask>
      <path fill="#884E4D" d="M149.80791,153.509654 L23.3755744,153.509654 C23.3755744,153.509654 -9.5719231,0.00426781055 86.5915482,0.00426781055 C182.75502,0.00426781055 149.80791,153.509654 149.80791,153.509654" mask="url(#e)"/>
      <path fill="#BD0FE1" d="M157.548942,149.902578 L156.845918,149.696559 C146.576789,146.944209 143.10318,144.288855 138.532355,142.555348 C122.310019,136.371678 118.090318,131.922292 117.011726,129.818649 C116.975255,129.739889 116.944993,129.661128 116.91473,129.582368 L116.775444,110.747744 L86.5915482,110.310875 L56.408428,110.747356 L56.274962,129.58198 C56.2446993,129.66074 56.2082289,129.739501 56.1717585,129.818261 C55.0927784,131.921904 50.8734657,136.371678 34.6573376,142.55496 C30.0865125,144.288855 26.6129027,146.943821 16.3433865,149.696171 L15.6403617,149.90219 C6.29230468,152.994025 -4.54747351e-13,161.662724 -4.54747351e-13,171.446098 L-4.54747351e-13,198.647182 L173.183096,198.647182 L173.183096,171.446098 C173.183096,161.663112 166.896223,152.994413 157.548942,149.902578" mask="url(#e)"/>
      <path fill="#E5C2B3" d="M139.962847,74.1260495 C139.962847,108.801234 106.899731,140.71243 86.5915482,140.71243 C66.2833657,140.71243 33.2206373,108.801234 33.2206373,74.1260495 C33.2206373,39.4504768 57.1176605,16.5719084 86.5915482,16.5719084 C116.065824,16.5719084 139.962847,39.4504768 139.962847,74.1260495"/>
      <polyline fill="#884E4D" points="131.585 33.11 102.669 15.177 63.701 14.487 39.731 36.044 29.898 66.221 142.776 66.221 131.585 33.11"/>
      <path fill="#703D3C" d="M139.962847,62.0803483 L132.427446,62.0803483 L132.427446,57.940184 C132.427446,55.6545775 130.572888,53.8058396 128.286893,53.8058396 C126.001287,53.8058396 124.152549,55.6545775 124.152549,57.940184 L124.152549,62.0803483 L115.871832,62.0803483 L115.871832,57.940184 C115.871832,55.6545775 114.017275,53.8058396 111.737876,53.8058396 C109.44645,53.8058396 107.596936,55.6545775 107.596936,57.940184 L107.596936,62.0803483 L99.3224271,62.0803483 L99.3224271,57.940184 C99.3224271,55.6545775 97.4678694,53.8058396 95.1818749,53.8058396 C92.8962683,53.8058396 91.0413227,55.6545775 91.0413227,57.940184 L91.0413227,62.0803483 L82.766426,62.0803483 L82.766426,57.940184 C82.766426,55.6545775 80.9114803,53.8058396 78.6258738,53.8058396 C76.3402673,53.8058396 74.4915293,55.6545775 74.4915293,57.940184 L74.4915293,62.0803483 L66.2108129,62.0803483 L66.2108129,57.940184 C66.2108129,55.6545775 64.3558672,53.8058396 62.0764684,53.8058396 C59.7850421,53.8058396 57.9363042,55.6545775 57.9363042,57.940184 L57.9363042,62.0803483 L49.6614075,62.0803483 L49.6614075,57.940184 C49.6614075,55.6545775 47.8064619,53.8058396 45.5208553,53.8058396 C43.2352488,53.8058396 41.3803031,55.6545775 41.3803031,57.940184 L41.3803031,62.0803483 L33.2268451,62.0803483 C30.9412385,62.0803483 29.0862929,63.9352939 29.0862929,66.2209005 C29.0862929,68.506507 30.9412385,70.3552449 33.2268451,70.3552449 L139.962459,70.3552449 C142.241858,70.3552449 144.096804,68.506119 144.096804,66.2209005 C144.097192,63.9356819 142.242246,62.0803483 139.962847,62.0803483"/>
    </g>
  </g>
</svg>
