<svg xmlns="http://www.w3.org/2000/svg" width="316" height="391" viewBox="0 0 316 391" xmlns:xlink="http://www.w3.org/1999/xlink">
  <defs>
    <rect id="b" width="239.938" height="342.311" y="25" rx="7"/>
    <filter id="a" width="114.6%" height="110.2%" x="-7.3%" y="-3.7%" filterUnits="objectBoundingBox">
      <feOffset dy="5" in="SourceAlpha" result="shadowOffsetOuter1"/>
      <feGaussianBlur stdDeviation="5" in="shadowOffsetOuter1" result="shadowBlurOuter1"/>
      <feComposite in="shadowBlurOuter1" in2="SourceAlpha" operator="out" result="shadowBlurOuter1"/>
      <feColorMatrix values="0 0 0 0 0 0 0 0 0 0 0 0 0 0 0 0 0 0 0.3 0" in="shadowBlurOuter1"/>
    </filter>
    <polygon id="c" points=".027 230.19 .027 .005 200.683 .005 200.683 230.19"/>
    <rect id="f" width="239.938" height="342.311" y="25" rx="7"/>
    <filter id="e" width="114.6%" height="110.2%" x="-7.3%" y="-3.7%" filterUnits="objectBoundingBox">
      <feOffset dy="5" in="SourceAlpha" result="shadowOffsetOuter1"/>
      <feGaussianBlur stdDeviation="5" in="shadowOffsetOuter1" result="shadowBlurOuter1"/>
      <feComposite in="shadowBlurOuter1" in2="SourceAlpha" operator="out" result="shadowBlurOuter1"/>
      <feColorMatrix values="0 0 0 0 0 0 0 0 0 0 0 0 0 0 0 0 0 0 0.3 0" in="shadowBlurOuter1"/>
    </filter>
  </defs>
  <g fill="none" fill-rule="evenodd" transform="rotate(8 173.133 425.687)">
    <use fill="black" filter="url(#a)" xlink:href="#b"/>
    <use fill="#FFFFFF" xlink:href="#b"/>
    <rect width="239.438" height="341.811" x=".25" y="25.25" stroke="#E6E6E6" stroke-width=".5" rx="7"/>
    <rect width="218.252" height="287.174" x="11.487" y="36.487" fill="#F0A4A4"/>
    <g transform="translate(20.25 92.773)">
      <g>
        <mask id="d" fill="white">
          <use xlink:href="#c"/>
        </mask>
        <path fill="#884E4D" d="M173.595881,177.885424 L27.0873776,177.885424 C27.0873776,177.885424 -11.091847,0.00494549542 100.341404,0.00494549542 C211.774656,0.00494549542 173.595881,177.885424 173.595881,177.885424" mask="url(#d)"/>
        <path fill="#BD0FE1" d="M182.56611,173.705581 L181.751452,173.466848 C169.851691,170.277454 165.826508,167.200456 160.529882,165.191686 C141.731604,158.026113 136.841858,152.870209 135.591997,150.432529 C135.549735,150.341262 135.514667,150.249995 135.479599,150.158729 L135.318196,128.333358 L100.341404,127.827119 L65.3655121,128.332909 L65.210853,150.158279 C65.1757849,150.249546 65.1335234,150.340813 65.0912619,150.43208 C63.8409507,152.869759 58.9516541,158.026113 40.1605699,165.191236 C34.8639443,167.200456 30.8387606,170.277004 18.9385499,173.466399 L18.1238919,173.705131 C7.29145861,177.287918 -3.97903932e-13,187.333118 -3.97903932e-13,198.669992 L-3.97903932e-13,230.190332 L200.682809,230.190332 L200.682809,198.669992 C200.682809,187.333568 193.397645,177.288368 182.56611,173.705581" mask="url(#d)"/>
      </g>
      <path fill="#E5C2B3" d="M162.187522,85.8965115 C162.187522,126.077763 123.87432,163.056131 100.341404,163.056131 C76.8084893,163.056131 38.4957363,126.077763 38.4957363,85.8965115 C38.4957363,45.7148109 66.1873635,19.2033587 100.341404,19.2033587 C134.495895,19.2033587 162.187522,45.7148109 162.187522,85.8965115"/>
      <polyline fill="#884E4D" points="152.479 38.367 118.972 17.588 73.816 16.787 46.04 41.767 34.646 76.736 165.447 76.736 152.479 38.367"/>
      <path fill="#703D3C" d="M162.187522,71.9380755 L153.455576,71.9380755 L153.455576,67.1404954 C153.455576,64.4919578 151.306533,62.3496591 148.657546,62.3496591 C146.009008,62.3496591 143.86671,64.4919578 143.86671,67.1404954 L143.86671,71.9380755 L134.2711,71.9380755 L134.2711,67.1404954 C134.2711,64.4919578 132.122057,62.3496591 129.480713,62.3496591 C126.825432,62.3496591 124.682234,64.4919578 124.682234,67.1404954 L124.682234,71.9380755 L115.093817,71.9380755 L115.093817,67.1404954 C115.093817,64.4919578 112.944775,62.3496591 110.295788,62.3496591 C107.64725,62.3496591 105.497758,64.4919578 105.497758,67.1404954 L105.497758,71.9380755 L95.9088918,71.9380755 L95.9088918,67.1404954 C95.9088918,64.4919578 93.7593997,62.3496591 91.1108621,62.3496591 C88.4623245,62.3496591 86.3200258,64.4919578 86.3200258,67.1404954 L86.3200258,71.9380755 L76.7244159,71.9380755 L76.7244159,67.1404954 C76.7244159,64.4919578 74.5749238,62.3496591 71.9335796,62.3496591 C69.2782982,62.3496591 67.1359995,64.4919578 67.1359995,67.1404954 L67.1359995,71.9380755 L57.5471334,71.9380755 L57.5471334,67.1404954 C57.5471334,64.4919578 55.3976413,62.3496591 52.7491037,62.3496591 C50.1005661,62.3496591 47.951074,64.4919578 47.951074,67.1404954 L47.951074,71.9380755 L38.5029298,71.9380755 C35.8543922,71.9380755 33.7049,74.0875677 33.7049,76.7361052 C33.7049,79.3846428 35.8543922,81.5269415 38.5029298,81.5269415 L162.187073,81.5269415 C164.828417,81.5269415 166.977909,79.3841932 166.977909,76.7361052 C166.978358,74.0880172 164.828866,71.9380755 162.187522,71.9380755"/>
    </g>
    <g>
      <use fill="black" filter="url(#e)" xlink:href="#f"/>
      <use fill="#7ED321" fill-opacity=".35" xlink:href="#f"/>
    </g>
    <g fill="#66B659" transform="translate(182.918 .703)">
      <path d="M32.9231628,60.3464034 L15.3824166,42.8705219 L21.2287095,37.0454141 L32.9231628,48.6963739 L59.232975,22.4819934 L65.0794547,28.3069152 L32.9231628,60.3464034 Z M39.6392113,0 C17.748113,0 0,17.7473697 0,39.6392113 C0,61.5312387 17.748113,79.2786084 39.6392113,79.2786084 C61.532911,79.2786084 79.2786084,61.5312387 79.2786084,39.6392113 C79.2786084,17.7473697 61.5319819,0 39.6392113,0 L39.6392113,0 Z"/>
    </g>
  </g>
</svg>
