<svg xmlns="http://www.w3.org/2000/svg" width="252" height="328" viewBox="0 0 252 328" xmlns:xlink="http://www.w3.org/1999/xlink">
  <defs>
    <rect id="a" width="208.879" height="298" rx="7"/>
    <filter id="b" width="200%" height="200%" x="-50%" y="-50%" filterUnits="objectBoundingBox">
      <feOffset dy="2" in="SourceAlpha" result="shadowOffsetOuter1"/>
      <feGaussianBlur stdDeviation="1" in="shadowOffsetOuter1" result="shadowBlurOuter1"/>
      <feComposite in="shadowBlurOuter1" in2="SourceAlpha" operator="out" result="shadowBlurOuter1"/>
      <feColorMatrix values="0 0 0 0 0 0 0 0 0 0 0 0 0 0 0 0 0 0 0.05 0" in="shadowBlurOuter1"/>
    </filter>
    <mask id="c" width="208.879" height="298" x="0" y="0" fill="white">
      <use xlink:href="#a"/>
    </mask>
    <polygon id="d" points=".022 185.834 .022 .002 177.503 .002 177.503 185.834"/>
  </defs>
  <g fill="none" fill-rule="evenodd" transform="rotate(-8 207.954 5.343)">
    <use fill="black" filter="url(#b)" xlink:href="#a"/>
    <use fill="#FFFFFF" stroke="#E6E6E6" mask="url(#c)" xlink:href="#a"/>
    <rect width="190" height="250" x="10" y="10" fill="#50E3C2"/>
    <g transform="translate(16.3 74)">
      <g>
        <mask id="e" fill="white">
          <use xlink:href="#d"/>
        </mask>
        <path fill="#648FBE" d="M162.871818,140.233058 L162.214139,140.040328 C152.607375,137.465506 149.35237,134.987231 145.076366,133.359729 C129.911631,127.574909 125.964466,123.41251 124.954717,121.444554 C124.915155,121.370873 124.886481,121.297193 124.852726,121.223512 L124.727869,103.603368 L88.7504139,103.195041 L52.7700553,103.603368 L52.6451979,121.223512 C52.6139835,121.297193 52.5856728,121.370873 52.5486511,121.444554 C51.5392658,123.41251 47.5921009,127.575272 32.4219214,133.359729 C28.1459169,134.987231 24.8963567,137.465506 15.286326,140.040328 L14.6286467,140.233058 C5.88390708,143.125468 3.19744231e-14,151.235032 3.19744231e-14,160.387736 L3.19744231e-14,185.834336 L177.503368,185.834336 L177.503368,160.387736 C177.503368,151.235032 171.616921,143.125468 162.871818,140.233058" mask="url(#e)"/>
        <path fill="#E5C2B3" d="M138.679236,69.5027677 C138.679236,101.941748 107.748708,131.794655 88.7504139,131.794655 C69.749216,131.794655 38.824495,101.941748 38.824495,69.5027677 C38.824495,37.0637873 61.1772442,15.6667056 88.7504139,15.6667056 C116.323584,15.6667056 138.679236,37.0637873 138.679236,69.5027677" mask="url(#e)"/>
        <path fill="#884E4D" d="M119.635209,10.3130797 C111.145629,2.62309521 81.6502356,-8.42424794 54.2952035,10.3130797 C32.7224504,25.0919909 34.8998335,62.3514124 34.8998335,62.3514124 C34.8998335,62.3514124 63.2072666,69.5027677 95.6349953,50.9806739 C116.595439,39.0030702 123.899599,51.1846561 127.654034,61.7899168 C131.306114,72.1113446 138.678873,69.5027677 138.678873,69.5027677 C138.678873,69.5027677 146.800415,34.9085445 119.635209,10.3130797" mask="url(#e)"/>
      </g>
      <path fill="#703D3C" d="M110.266546,46.0357384 C113.226829,45.9449989 115.716718,46.5972339 117.820421,47.7597874 C121.846711,33.1507404 129.775158,29.2209976 133.234508,28.1829386 C132.106073,25.914453 130.795795,23.6401601 129.276092,21.3887336 C123.616492,23.6176568 114.667408,29.6743317 110.266546,46.0357384"/>
    </g>
  </g>
</svg>
