<?xml version="1.0" encoding="UTF-8"?>
<svg width="21px" height="20px" viewBox="0 0 21 20" version="1.1" xmlns="http://www.w3.org/2000/svg" xmlns:xlink="http://www.w3.org/1999/xlink">
    <!-- Generator: Sketch 46.2 (44496) - http://www.bohemiancoding.com/sketch -->
    <title>Collection icon</title>
    <desc>Created with Sketch.</desc>
    <defs></defs>
    <g id="Scribe-Dashboards" stroke="none" stroke-width="1" fill="none" fill-rule="evenodd">
        <g id="Estadísticas" transform="translate(-39.000000, -259.000000)" fill="#E11D24">
            <g id="Main-Nav" transform="translate(-5.000000, 0.000000)">
                <g id="Collection-icon" transform="translate(44.000000, 259.000000)">
                    <path d="M15.2439799,12.2161088 C15.098991,12.3560775 15.0358264,12.5590509 15.0718592,12.757906 L16.1081228,18.684461 L10.7592951,15.8994738 C10.5827775,15.8046994 10.3701734,15.8091386 10.1890445,15.8994738 L4.85839398,18.7159634 L5.85846401,12.7803694 C5.88999268,12.5817818 5.8268281,12.3831942 5.68189275,12.2432789 L1.35592364,8.05432569 L7.32476153,7.16963991 C7.52379965,7.1380841 7.69570595,7.01619311 7.78171273,6.8356832 L10.4334452,1.43252669 L13.1216395,6.82204467 C13.2120431,7.00276852 13.3839494,7.12465951 13.5829339,7.15616184 L19.5564904,8.00469215 L15.2439799,12.2161088 Z M20.8712573,7.52204875 C20.8027843,7.31228286 20.6224596,7.16274042 20.4037965,7.12840342 L13.883475,6.20419266 L10.9494323,0.320906517 C10.8507711,0.124083853 10.6491056,0 10.4303889,0 C10.2115113,0 10.0100603,0.124083853 9.91139915,0.325292239 L7.01590928,6.22547945 L0.495587811,7.19258473 C0.276924706,7.22681476 0.0968145118,7.3766781 0.0280734375,7.58623005 C-0.0406140166,7.79594246 0.0194942082,8.02699516 0.178263569,8.17664456 L4.90960126,12.7505251 L3.81585677,19.228665 C3.77708938,19.4469884 3.86738576,19.6650979 4.04749596,19.7936209 C4.14615709,19.8662528 4.26615906,19.9047615 4.38642913,19.9047615 C4.48063979,19.9047615 4.5707217,19.8834213 4.65662123,19.836248 L10.477521,16.7597707 L16.3156329,19.801911 C16.4015324,19.8448055 16.4915607,19.8662528 16.5816426,19.8662528 C16.8991814,19.8662528 17.1607942,19.6051418 17.1607942,19.288621 C17.1607942,19.2416082 17.1566119,19.1988207 17.1436358,19.1559797 L16.0155208,12.7165091 L20.7168848,8.11684898 C20.8842333,7.96270688 20.9399983,7.73160071 20.8712573,7.52204875 L20.8712573,7.52204875 Z" id="Star"></path>
                </g>
            </g>
        </g>
    </g>
</svg>