<svg xmlns="http://www.w3.org/2000/svg" width="127" height="127" viewBox="0 0 127 127" xmlns:xlink="http://www.w3.org/1999/xlink">
  <defs>
    <ellipse id="b" cx="61.5" cy="61.5" rx="61.5" ry="61.5"/>
    <filter id="a" width="200%" height="200%" x="-50%" y="-50%" filterUnits="objectBoundingBox">
      <feOffset dy="2" in="SourceAlpha" result="shadowOffsetOuter1"/>
      <feGaussianBlur stdDeviation="1" in="shadowOffsetOuter1" result="shadowBlurOuter1"/>
      <feColorMatrix values="0 0 0 0 0 0 0 0 0 0 0 0 0 0 0 0 0 0 0.05 0" in="shadowBlurOuter1"/>
    </filter>
  </defs>
  <g fill="none" fill-rule="evenodd" transform="translate(2)">
    <use fill="black" filter="url(#a)" xlink:href="#b"/>
    <use fill="#E04F5F" xlink:href="#b"/>
    <path fill="#FFFFFF" d="M68.1040169,61.5009222 L84.1161405,44.3065581 C85.8624259,42.4318953 85.6339297,39.6010116 83.6064393,37.9856976 C81.5808807,36.3724257 78.5215697,36.5817426 76.7741805,38.4574264 L61.7094332,54.6327745 L46.6468937,38.4574264 C44.9006083,36.5807215 41.8401934,36.3714046 39.8124271,37.9856976 C37.7849368,39.6010116 37.5583723,42.4318953 39.3046577,44.3065581 L55.3148496,61.5009222 L39.3046577,78.6934994 C37.5583723,80.568928 37.7849368,83.3987906 39.8124271,85.0143599 C40.727792,85.7431402 41.8531636,86.1 42.9730161,86.1 C44.3335071,86.1 45.687375,85.5716024 46.6468937,84.5436521 L61.7094332,68.367283 L76.7741805,84.5436521 C77.7314915,85.5726235 79.0853594,86.1 80.4466783,86.1 C81.5657028,86.1 82.6921783,85.7431402 83.6064393,85.0143599 C85.6339297,83.3987906 85.8624259,80.5681622 84.1161405,78.6934994 L68.1040169,61.5009222 Z"/>
  </g>
</svg>
