<svg xmlns="http://www.w3.org/2000/svg" width="306" height="201" viewBox="0 0 306 201" xmlns:xlink="http://www.w3.org/1999/xlink">
  <defs>
    <rect id="a" width="291.462" height="101.96" x="9.269" y="51.495" rx="5"/>
    <mask id="b" width="291.462" height="101.96" x="0" y="0" fill="white">
      <use xlink:href="#a"/>
    </mask>
  </defs>
  <g fill="none" fill-rule="evenodd" transform="translate(-2 -2)">
    <use fill="#FFFFFF" stroke="#FE5068" stroke-width="8" mask="url(#b)" transform="rotate(22 155 102.475)" xlink:href="#a"/>
    <path fill="#FE5068" d="M30.89701,76.9355354 L43.5018062,76.9355354 L66.4089745,117.016484 L66.4089745,76.9355354 L77.6089017,76.9355354 L77.6089017,134.349838 L65.5894676,134.349838 L42.0969372,93.5677656 L42.0969372,134.349838 L30.89701,134.349838 L30.89701,76.9355354 Z M134.852698,120.522106 C137.649442,117.016466 139.047793,112.030742 139.047793,105.564784 C139.047793,99.1247939 137.649442,94.1455616 134.852698,90.626938 C132.055955,87.1083143 128.277155,85.3490289 123.516187,85.3490289 C118.755218,85.3490289 114.956907,87.1018225 112.121139,90.6074623 C109.285371,94.1131021 107.867508,99.0988262 107.867508,105.564784 C107.867508,112.030742 109.285371,117.016466 112.121139,120.522106 C114.956907,124.027746 118.755218,125.780539 123.516187,125.780539 C128.277155,125.780539 132.055955,124.027746 134.852698,120.522106 Z M142.364845,129.24721 C138.020136,133.713655 131.737313,135.946844 123.516187,135.946844 C115.295061,135.946844 109.012237,133.713655 104.667529,129.24721 C98.8398949,123.768025 95.9261219,115.873962 95.9261219,105.564784 C95.9261219,95.0478646 98.8398949,87.1538015 104.667529,81.882358 C109.012237,77.4159132 115.295061,75.1827243 123.516187,75.1827243 C131.737313,75.1827243 138.020136,77.4159132 142.364845,81.882358 C148.166462,87.1538015 151.067227,95.0478646 151.067227,105.564784 C151.067227,115.873962 148.166462,123.768025 142.364845,129.24721 Z M199.530593,88.8156998 C197.956612,87.5432824 195.75177,86.9070832 192.916002,86.9070832 L181.716075,86.9070832 L181.716075,103.811973 L192.916002,103.811973 C195.75177,103.811973 197.956612,103.123839 199.530593,101.747551 C201.104574,100.371263 201.891553,98.1900084 201.891553,95.2037226 C201.891553,92.2174369 201.104574,90.0881172 199.530593,88.8156998 Z M208.642729,109.498871 C205.208588,112.303383 200.304604,113.705618 193.930629,113.705618 L181.716075,113.705618 L181.716075,134.349838 L169.774689,134.349838 L169.774689,76.9355354 L194.828185,76.9355354 C200.603786,76.9355354 205.208588,78.4156722 208.642729,81.3759903 C212.07687,84.3363084 213.793915,88.9195391 213.793915,95.1258199 C213.793915,101.90339 212.07687,106.694359 208.642729,109.498871 Z M274.60842,87.10184 L244.169593,87.10184 L244.169593,99.2936153 L272.110875,99.2936153 L272.110875,109.265163 L244.169593,109.265163 L244.169593,124.027728 L276.013289,124.027728 L276.013289,134.349838 L232.423328,134.349838 L232.423328,76.9355354 L274.60842,76.9355354 L274.60842,87.10184 Z" transform="rotate(22 153.455 105.565)"/>
  </g>
</svg>
