<?xml version="1.0" encoding="UTF-8"?>
<svg width="13px" height="11px" viewBox="0 0 13 11" version="1.1" xmlns="http://www.w3.org/2000/svg" xmlns:xlink="http://www.w3.org/1999/xlink">
    <!-- Generator: Sketch 48.1 (47250) - http://www.bohemiancoding.com/sketch -->
    <title>Fill 1</title>
    <desc>Created with Sketch.</desc>
    <defs></defs>
    <g id="Estadísticas" stroke="none" stroke-width="1" fill="none" fill-rule="evenodd" transform="translate(-397.000000, -168.000000)">
        <g id="Nav-Dash" transform="translate(159.000000, 150.000000)" fill="#E11D24" stroke="#E11D24" stroke-width="0.2">
            <g id="Xport-btn" transform="translate(227.000000, 10.000000)">
                <path d="M17.7624888,16.2267608 C17.7588222,16.2306108 17.7529555,16.2289608 17.7491056,16.2324441 C17.6864061,16.2912937 17.6037234,16.3275934 17.5118741,16.3305267 C17.5109574,16.3305267 17.5102241,16.3305267 17.5094908,16.3308934 C17.4110415,16.3338267 17.3124089,16.3021102 17.2372429,16.2267608 L15.0392765,13.6626806 C14.894811,13.5183984 14.894811,13.2837336 15.0392765,13.1390847 C15.1839254,12.9948025 15.4180403,12.9948025 15.5625058,13.1390847 L17.1331103,14.9718539 L17.1331103,9.3664805 C17.1331103,9.1642654 17.2973757,9 17.4997742,9 C17.7023559,9 17.8666213,9.1642654 17.8666213,9.3664805 L17.8666213,14.9718539 L19.4372259,13.1390847 C19.5816914,12.9948025 19.8159896,12.9948025 19.9604552,13.1390847 C20.1049207,13.2837336 20.1049207,13.5183984 19.9604552,13.6626806 L17.7624888,16.2267608 Z M22.6332512,18.532893 L12.3666638,18.532893 C12.1640821,18.532893 12,18.3691776 12,18.1662292 L12,15.2331018 C12,15.0308867 12.1640821,14.866438 12.3666638,14.866438 C12.5690623,14.866438 12.7333277,15.0308867 12.7333277,15.2331018 L12.7333277,17.7995653 L22.2665873,17.7995653 L22.2665873,15.2331018 C22.2665873,15.0308867 22.4308527,14.866438 22.6332512,14.866438 C22.8356496,14.866438 22.999915,15.0308867 22.999915,15.2331018 L22.999915,18.1662292 C22.999915,18.3691776 22.8356496,18.532893 22.6332512,18.532893 L22.6332512,18.532893 Z" id="Fill-1"></path>
            </g>
        </g>
    </g>
</svg>