<?xml version="1.0" encoding="UTF-8"?>
<svg width="20px" height="16px" viewBox="0 0 20 16" version="1.1" xmlns="http://www.w3.org/2000/svg" xmlns:xlink="http://www.w3.org/1999/xlink">
    <!-- Generator: Sketch 48.1 (47250) - http://www.bohemiancoding.com/sketch -->
    <title>Gender Icon</title>
    <desc>Created with Sketch.</desc>
    <defs></defs>
    <g id="Estadísticas" stroke="none" stroke-width="1" fill="none" fill-rule="evenodd" transform="translate(-386.000000, -360.000000)">
        <g id="Graph" transform="translate(159.000000, 320.000000)" fill="#F17C31">
            <g id="Black-01">
                <g id="Genero" transform="translate(226.000000, 28.000000)">
                    <g id="Title" transform="translate(1.000000, 9.240000)">
                        <g id="Gender-Icon" transform="translate(0.000000, 3.080000)">
                            <path d="M16.0064706,5.20976751 L16.0064706,3.86933787 L16.7907843,3.86933787 L16.7907843,2.17364039 L16.0064706,2.17364039 L16.0064706,0.9625 L14.0456863,0.9625 L14.0456863,2.17364039 L13.1828431,2.17364039 L13.1828431,3.86933787 L14.0456863,3.86933787 L14.0456863,5.19553661 C11.7712745,5.6509254 10,7.74397785 10,10.2514422 C10,13.0904562 12.2503922,15.4 15.0080392,15.4 C17.7661765,15.4 20,13.0904562 20,10.2514422 C20,7.77122851 18.2808824,5.69503109 16.0064706,5.20976751 Z M15.015,13.3814327 C13.3379412,13.3814327 11.9742157,11.9771154 11.9742157,10.2510385 C11.9742157,8.52506248 13.3379412,7.12064426 15.015,7.12064426 C16.6915686,7.12064426 18.0556863,8.52506248 18.0556863,10.2510385 C18.0552941,11.9775191 16.6915686,13.3814327 15.015,13.3814327 Z" id="Fill-1"></path>
                            <path d="M10,5.10657341 C10,2.2905757 7.7641918,0 5.00822997,0 C2.25187624,0 0,2.2905757 0,5.10657341 C0,7.59424493 1.77659554,9.67130851 4.04953657,10.1213556 L4.04953657,12.3626824 L3.40808888,11.797621 L2.35220348,13.0820971 L5.04036604,15.4 L7.80975055,13.0911061 L6.7569024,11.7886121 L6.00905297,12.4017212 L6.00905297,10.1057401 C8.281994,9.62286037 10,7.56491579 10,5.10657341 Z M1.97597633,5.10657341 C1.97597633,3.39477273 3.33881998,2.00198899 5.01479435,2.00198899 C6.69027884,2.00198899 8.05351439,3.39477273 8.05351439,5.10657341 C8.05351439,6.8184742 6.69027884,8.21125794 5.01479435,8.21125794 C3.33881998,8.21125794 1.97597633,6.8184742 1.97597633,5.10657341 Z" id="Fill-2"></path>
                        </g>
                    </g>
                </g>
            </g>
        </g>
    </g>
</svg>