<?xml version="1.0" encoding="UTF-8"?>
<svg width="24px" height="25px" viewBox="0 0 24 25" version="1.1" xmlns="http://www.w3.org/2000/svg" xmlns:xlink="http://www.w3.org/1999/xlink">
    <!-- Generator: Sketch 48.1 (47250) - http://www.bohemiancoding.com/sketch -->
    <title>Happy Face</title>
    <desc>Created with Sketch.</desc>
    <defs>
        <ellipse id="path-1" cx="10.07" cy="10.2512667" rx="9.75" ry="10.01"></ellipse>
        <filter x="-20.5%" y="-10.0%" width="141.0%" height="140.0%" filterUnits="objectBoundingBox" id="filter-2">
            <feOffset dx="0" dy="2" in="SourceAlpha" result="shadowOffsetOuter1"></feOffset>
            <feGaussianBlur stdDeviation="1" in="shadowOffsetOuter1" result="shadowBlurOuter1"></feGaussianBlur>
            <feColorMatrix values="0 0 0 0 0   0 0 0 0 0   0 0 0 0 0  0 0 0 0.05 0" type="matrix" in="shadowBlurOuter1"></feColorMatrix>
        </filter>
    </defs>
    <g id="Estadísticas" stroke="none" stroke-width="1" fill="none" fill-rule="evenodd" transform="translate(-723.000000, -358.000000)">
        <g id="Graph" transform="translate(159.000000, 320.000000)">
            <g id="Black-01">
                <g id="Likes" transform="translate(566.000000, 28.000000)">
                    <g id="Title" transform="translate(0.000000, 9.240000)">
                        <g id="Happy-Face" transform="translate(0.000000, 1.026667)">
                            <g id="Oval">
                                <use fill="black" fill-opacity="1" filter="url(#filter-2)" xlink:href="#path-1"></use>
                                <use fill="#32BEA6" fill-rule="evenodd" xlink:href="#path-1"></use>
                            </g>
                            <path d="M13.859965,10.7526119 C13.639854,10.8642708 13.4935743,11.0416511 13.4207651,11.2842627 C13.1919964,12.0304113 12.7683084,12.6343984 12.1504225,13.0959178 C11.5325365,13.5574373 10.8389555,13.7884726 10.0698598,13.7884726 C9.30088434,13.7884726 8.60766408,13.5574373 7.98941742,13.0959178 C7.37159162,12.6343984 6.94814406,12.0304113 6.71931524,11.2842627 C6.64614533,11.0416511 6.50190982,10.8642708 6.28678908,10.7526119 C6.07166834,10.6408917 5.84975368,10.6214142 5.62074449,10.6966293 C5.38283707,10.7710482 5.20872034,10.9178646 5.09881516,11.1368337 C4.98897011,11.3560478 4.97063254,11.5826119 5.04416319,11.8154234 C5.38259657,12.9441401 6.01431083,13.8533977 6.93894521,14.5436862 C7.86388022,15.2339135 8.90731801,15.5786902 10.0700402,15.5786902 C11.232582,15.5786902 12.2765609,15.2339135 13.2011953,14.5436862 C14.1251082,13.8530914 14.7568826,12.9441401 15.0957368,11.8154234 C15.169508,11.5826119 15.1509299,11.3560478 15.0410247,11.1368337 C14.9306386,10.9178646 14.7613317,10.7715382 14.5328035,10.6966293 C14.5328035,10.6966293 14.0797753,10.6408917 13.859965,10.7526119 Z" id="Fill-4" stroke="#32BEA6" fill="#FFFFFF"></path>
                            <path d="M6.26756503,8.24926667 C6.61729644,8.24926667 6.91600097,8.12201203 7.16359191,7.86799235 C7.41118285,7.61397268 7.535,7.30725294 7.535,6.94805569 C7.535,6.58885843 7.41118285,6.28213869 7.16359191,6.02794098 C6.91600097,5.77392131 6.61729644,5.64666667 6.26756503,5.64666667 C5.91770356,5.64666667 5.61895567,5.77392131 5.37136473,6.02794098 C5.12394721,6.28231673 5,6.58885843 5,6.94805569 C5,7.30725294 5.12377379,7.61397268 5.37136473,7.86799235 C5.61895567,8.12219007 5.91770356,8.24926667 6.26756503,8.24926667" id="Fill-6" fill="#FFFFFF"></path>
                            <path d="M13.8725867,5.64666667 C13.5227671,5.64666667 13.2238816,5.77374327 12.9763203,6.02794098 C12.7289324,6.28213869 12.605,6.58868039 12.605,6.94787765 C12.605,7.3070749 12.7289324,7.61397268 12.9763203,7.86799235 C13.2238816,8.12219007 13.5227671,8.24926667 13.8725867,8.24926667 C14.2222329,8.24926667 14.520945,8.12201203 14.7686797,7.86799235 C15.016241,7.61397268 15.14,7.3070749 15.14,6.94787765 C15.14,6.58868039 15.016241,6.28213869 14.7686797,6.02794098 C14.520945,5.77374327 14.2222329,5.64666667 13.8725867,5.64666667" id="Fill-8" fill="#FFFFFF"></path>
                        </g>
                    </g>
                </g>
            </g>
        </g>
    </g>
</svg>