<svg xmlns="http://www.w3.org/2000/svg" width="39" height="39" viewBox="0 0 39 39">
  <g fill="none" fill-rule="evenodd">
    <path fill="#E04F5F" d="M0,19.500393 C0,8.72985624 8.73045605,0 19.4998035,0 C30.2694457,0 39,8.72985624 39,19.500393 C39,30.269456 30.2694457,39 19.4998035,39 C8.73045605,39 0,30.269456 0,19.500393 Z"/>
    <path fill="#FFFFFF" d="M29.3117302,11.7891695 C26.6026107,9.07027684 22.2099252,9.07027684 19.5012923,11.7891695 L19.4989568,11.7891695 C16.7894481,9.07027684 12.3972492,9.07027684 9.68812966,11.7891695 C6.97901016,14.5080621 7.36980843,18.5739004 9.68812966,21.6349985 C12.1436585,24.8768678 16.6268425,30.225 19.4989568,30.225 L19.5012923,30.225 C22.3734066,30.225 26.8562014,24.8768678 29.3117302,21.6349985 C31.6304407,18.5742911 32.0208497,14.5080621 29.3117302,11.7891695 Z"/>
  </g>
</svg>
