<svg xmlns="http://www.w3.org/2000/svg" viewBox="0 0 24 24"><defs><style>.cls-1{fill:#e21d26;}.cls-2{fill:none;stroke:#e21d26;stroke-linecap:round;stroke-linejoin:round;}</style></defs><title>Layer 3</title><g id="Layer_2" data-name="Layer 2"><g id="Layer_3" data-name="Layer 3"><path class="cls-1" d="M20.15,1A2.86,2.86,0,0,1,23,3.85v16.3A2.86,2.86,0,0,1,20.15,23H3.85A2.86,2.86,0,0,1,1,20.15V3.85A2.86,2.86,0,0,1,3.85,1h16.3m0-1H3.85A3.86,3.86,0,0,0,0,3.85v16.3A3.86,3.86,0,0,0,3.85,24h16.3A3.86,3.86,0,0,0,24,20.15V3.85A3.86,3.86,0,0,0,20.15,0Z"/><path class="cls-2" d="M15.34,19.22,9,12.92a1.3,1.3,0,0,1,0-1.84l6.3-6.3"/></g></g></svg>