<?xml version="1.0" encoding="UTF-8"?>
<svg width="43px" height="43px" viewBox="0 0 43 43" version="1.1" xmlns="http://www.w3.org/2000/svg" xmlns:xlink="http://www.w3.org/1999/xlink">
    <!-- Generator: Sketch 48.1 (47250) - http://www.bohemiancoding.com/sketch -->
    <title>Likes</title>
    <desc>Created with Sketch.</desc>
    <defs>
        <circle id="path-1" cx="20.14" cy="19.97" r="19.5"></circle>
        <filter x="-10.3%" y="-5.1%" width="120.5%" height="120.5%" filterUnits="objectBoundingBox" id="filter-2">
            <feOffset dx="0" dy="2" in="SourceAlpha" result="shadowOffsetOuter1"></feOffset>
            <feGaussianBlur stdDeviation="1" in="shadowOffsetOuter1" result="shadowBlurOuter1"></feGaussianBlur>
            <feColorMatrix values="0 0 0 0 0   0 0 0 0 0   0 0 0 0 0  0 0 0 0.05 0" type="matrix" in="shadowBlurOuter1"></feColorMatrix>
        </filter>
    </defs>
    <g id="04_filtro" stroke="none" stroke-width="1" fill="none" fill-rule="evenodd" transform="translate(-604.000000, -789.000000)">
        <g id="All">
            <g id="Swipe-Card" transform="translate(79.000000, 132.000000)">
                <g id="Likes" transform="translate(526.000000, 656.000000)">
                    <path d="M1,20.500393 C1,9.72985624 9.73045605,1 20.4998035,1 C31.2694457,1 40,9.72985624 40,20.500393 C40,31.269456 31.2694457,40 20.4998035,40 C9.73045605,40 1,31.269456 1,20.500393 Z" id="Fill-1" fill="#E04F5F"></path>
                    <g id="Happy-Face" transform="translate(0.360000, 0.530000)">
                        <g id="Oval">
                            <use fill="black" fill-opacity="1" filter="url(#filter-2)" xlink:href="#path-1"></use>
                            <use fill="#32BEA6" fill-rule="evenodd" xlink:href="#path-1"></use>
                        </g>
                        <path d="M27.7199299,20.9466465 C27.279708,21.1641639 26.9871486,21.5097099 26.8415303,21.9823299 C26.3839929,23.4358661 25.5366168,24.6124644 24.3008449,25.5115282 C23.0650731,26.410592 21.6779111,26.8606609 20.1397196,26.8606609 C18.6017687,26.8606609 17.2153282,26.410592 15.9788348,25.5115282 C14.7431832,24.6124644 13.8962881,23.4358661 13.4386305,21.9823299 C13.2922907,21.5097099 13.0038196,21.1641639 12.5735782,20.9466465 C12.1433367,20.7290099 11.6995074,20.6910666 11.241489,20.8375896 C10.7656741,20.9825614 10.4174407,21.2685675 10.1976303,21.6951306 C9.97794023,22.122171 9.94126509,22.5635296 10.0883264,23.0170587 C10.7651931,25.2158573 12.0286217,26.9871384 13.8778904,28.3318562 C15.7277604,29.6764548 17.814636,30.3480978 20.1400804,30.3480978 C22.465164,30.3480978 24.5531218,29.6764548 26.4023906,28.3318562 C28.2502164,26.9865418 29.5137651,25.2158573 30.1914736,23.0170587 C30.3390159,22.5635296 30.3018598,22.122171 30.0820494,21.6951306 C29.8612771,21.2685675 29.5226634,20.9835159 29.0656069,20.8375896 C29.0656069,20.8375896 28.1595506,20.7290099 27.7199299,20.9466465 Z" id="Fill-4" stroke="#32BEA6" fill="#FFFFFF"></path>
                        <path d="M12.5351301,16.07 C13.2345929,16.07 13.8320019,15.8221013 14.3271838,15.3272578 C14.8223657,14.8324143 15.07,14.2349083 15.07,13.5351734 C15.07,12.8354385 14.8223657,12.2379325 14.3271838,11.7427422 C13.8320019,11.2478987 13.2345929,11 12.5351301,11 C11.8354071,11 11.2379113,11.2478987 10.7427295,11.7427422 C10.2478944,12.2382793 10,12.8354385 10,13.5351734 C10,14.2349083 10.2475476,14.8324143 10.7427295,15.3272578 C11.2379113,15.8224482 11.8354071,16.07 12.5351301,16.07" id="Fill-6" fill="#FFFFFF"></path>
                        <path d="M27.7451734,11 C27.0455342,11 26.4477632,11.2475518 25.9526406,11.7427422 C25.4578647,12.2379325 25.21,12.8350917 25.21,13.5348266 C25.21,14.2345615 25.4578647,14.8324143 25.9526406,15.3272578 C26.4477632,15.8224482 27.0455342,16.07 27.7451734,16.07 C28.4444658,16.07 29.04189,15.8221013 29.5373594,15.3272578 C30.032482,14.8324143 30.28,14.2345615 30.28,13.5348266 C30.28,12.8350917 30.032482,12.2379325 29.5373594,11.7427422 C29.04189,11.2475518 28.4444658,11 27.7451734,11" id="Fill-8" fill="#FFFFFF"></path>
                    </g>
                </g>
            </g>
        </g>
    </g>
</svg>