<svg xmlns="http://www.w3.org/2000/svg" width="278" height="188" viewBox="0 0 278 188" xmlns:xlink="http://www.w3.org/1999/xlink">
  <defs>
    <rect id="a" width="259.285" height="107.555" rx="5"/>
    <mask id="b" width="259.285" height="107.555" x="0" y="0" fill="white">
      <use xlink:href="#a"/>
    </mask>
  </defs>
  <g fill="none" fill-rule="evenodd" transform="rotate(-20 247.355 47.375)">
    <use fill="#FFFFFF" stroke="#38CA78" stroke-width="8" mask="url(#b)" xlink:href="#a"/>
    <path fill="#38CA78" d="M25.6434195,25.6059072 L38.3525923,25.6059072 L38.3525923,75.4935367 L68.4749823,75.4935367 L68.4749823,86.4283769 L25.6434195,86.4283769 L25.6434195,25.6059072 Z M98.6956544,86.4283769 L86.0690088,86.4283769 L86.0690088,25.6059072 L98.6956544,25.6059072 L98.6956544,86.4283769 Z M120.539826,25.6059072 L133.042681,25.6059072 L133.042681,50.6528808 L156.52164,25.6059072 L172.944532,25.6059072 L148.021349,50.6528808 L174.223702,86.4283769 L157.883337,86.4283769 L139.108423,59.854652 L133.042681,66.0854478 L133.042681,86.4283769 L120.539826,86.4283769 L120.539826,25.6059072 Z M236.134779,36.3756932 L203.949212,36.3756932 L203.949212,49.2911837 L233.493912,49.2911837 L233.493912,59.854652 L203.949212,59.854652 L203.949212,75.4935367 L237.620267,75.4935367 L237.620267,86.4283769 L191.528884,86.4283769 L191.528884,25.6059072 L236.134779,25.6059072 L236.134779,36.3756932 Z"/>
  </g>
</svg>
