<svg xmlns="http://www.w3.org/2000/svg" xmlns:xlink="http://www.w3.org/1999/xlink" width="127" height="127" viewBox="0 0 127 127">
  <defs>
    <circle id="like-b" cx="61.5" cy="61.5" r="61.5"/>
    <filter id="like-a" width="106.5%" height="106.5%" x="-3.3%" y="-1.6%" filterUnits="objectBoundingBox">
      <feOffset dy="2" in="SourceAlpha" result="shadowOffsetOuter1"/>
      <feGaussianBlur in="shadowOffsetOuter1" result="shadowBlurOuter1" stdDeviation="1"/>
      <feColorMatrix in="shadowBlurOuter1" values="0 0 0 0 0   0 0 0 0 0   0 0 0 0 0  0 0 0 0.05 0"/>
    </filter>
  </defs>
  <g fill="none" fill-rule="evenodd" transform="translate(2)">
    <use fill="#000" filter="url(#like-a)" xlink:href="#like-b"/>
    <use fill="#32BEA6" xlink:href="#like-b"/>
    <g fill="#FFF" transform="translate(29.52 33.21)">
      <path stroke="#32BEA6" stroke-width="4" d="M55.8859329,31.3701929 C54.4975406,32.0562092 53.5748533,33.146008 53.1155955,34.6365788 C51.6725929,39.2208085 49.000099,42.9316185 45.1026648,45.7671275 C41.2052305,48.6026365 36.8303349,50.0220844 31.9791158,50.0220844 C27.1286551,50.0220844 22.7560349,48.6026365 18.8563252,45.7671275 C14.9592702,42.9316185 12.2882933,39.2208085 10.8449115,34.6365788 C10.3833782,33.146008 9.473585,32.0562092 8.11666958,31.3701929 C6.75975415,30.6838003 5.35998477,30.5641332 3.91546525,31.026244 C2.41481842,31.4834628 1.31654366,32.385482 0.623295649,33.7307965 C-0.0695731283,35.0776162 -0.185240877,36.4695933 0.278567834,37.8999542 C2.41330147,44.834627 6.3979606,50.4209748 12.2302698,54.6620081 C18.0644752,58.9026651 24.6461597,61.0209239 31.9802535,61.0209239 C39.3132095,61.0209239 45.8983072,58.9026651 51.7306164,54.6620081 C57.5583747,50.4190932 61.5434131,44.834627 63.6808014,37.8999542 C64.1461271,36.4695933 64.0289424,35.0776162 63.3356944,33.7307965 C62.6394124,32.385482 61.5714768,31.4864732 60.1299911,31.026244 C60.1299911,31.026244 57.2724289,30.6838003 55.8859329,31.3701929 Z"/>
      <path d="M7.99541019 15.99C10.2014083 15.99 12.0855446 15.2081658 13.6472721 13.6475055 15.2089995 12.0868452 15.99 10.2024032 15.99 7.99554693 15.99 5.78869066 15.2089995 3.9042487 13.6472721 2.34249453 12.0855446.781834211 10.2014083 0 7.99541019 0 5.78859166 0 3.90418193.781834211 2.34245447 2.34249453.78182084 3.90534256 0 5.78869066 0 7.99554693 0 10.2024032.780727002 12.0868452 2.34245447 13.6475055 3.90418193 15.2092596 5.78859166 15.99 7.99541019 15.99M55.9655469 0C53.7589925 0 51.8737146.780740354 50.3121741 2.34249453 48.7517273 3.9042487 47.97 5.7875968 47.97 7.99445307 47.97 10.2013093 48.7517273 12.0868452 50.3121741 13.6475055 51.8737146 15.2092596 53.7589925 15.99 55.9655469 15.99 58.1710075 15.99 60.0551917 15.2081658 61.6178259 13.6475055 63.1793665 12.0868452 63.96 10.2013093 63.96 7.99445307 63.96 5.7875968 63.1793665 3.9042487 61.6178259 2.34249453 60.0551917.780740354 58.1710075 0 55.9655469 0"/>
    </g>
  </g>
</svg>
