<svg xmlns="http://www.w3.org/2000/svg" width="40" height="40" viewBox="0 0 40 40" xmlns:xlink="http://www.w3.org/1999/xlink">
  <defs>
    <polygon id="a" points="1.929 14.673 .002 14.673 .002 .005 1.929 .005 3.856 .005 3.856 14.673"/>
  </defs>
  <g fill="none" fill-rule="evenodd">
    <circle cx="20" cy="20" r="20" fill="#556080"/>
    <g transform="translate(10 13)">
      <mask id="b" fill="white">
        <use xlink:href="#a"/>
      </mask>
      <path fill="#E7ECED" d="M1.92785224 1.76373001L1.92808123 1.76688791C1.92808123 1.76467738 1.92785224 1.76373001 1.92785224 1.76373001zM1.92793508 3.52511529C.864849492 3.52511529 0 2.7354701 0 1.76486456 0 .794221197.864849492.00457600899 1.92793508.00457600899 2.99097924.00457600899 3.85582874.794221197 3.85582874 1.76486456 3.85582874 2.7354701 2.99097924 3.52511529 1.92793508 3.52511529L1.92793508 3.52511529zM1.92785224 12.9120981L1.92808123 12.9151507C1.92808123 12.9130455 1.92785224 12.9120981 1.92785224 12.9120981zM1.92793508 14.6734834C.864849492 14.6734834 0 13.8838004 0 12.9131948 0 11.9425893.864849492 11.1529441 1.92793508 11.1529441 2.99097924 11.1529441 3.85582874 11.9425893 3.85582874 12.9131948 3.85582874 13.8838004 2.99097924 14.6734834 1.92793508 14.6734834L1.92793508 14.6734834zM1.92785224 7.33791405L1.92808123 7.34096669C1.92808123 7.33886142 1.92785224 7.33791405 1.92785224 7.33791405zM1.92793508 9.09929933C.864849492 9.09929933 0 8.30965415 0 7.33901078 0 6.36840524.864849492 5.57876005 1.92793508 5.57876005 2.99097924 5.57876005 3.85582874 6.36840524 3.85582874 7.33901078 3.85582874 8.30965415 2.99097924 9.09929933 1.92793508 9.09929933L1.92793508 9.09929933z" mask="url(#b)"/>
      <polygon fill="#E7ECED" points="5.263 8.421 20 8.421 20 6.316 5.263 6.316"/>
      <polygon fill="#E7ECED" points="5.263 13.684 20 13.684 20 11.579 5.263 11.579"/>
      <polygon fill="#E7ECED" points="5.263 3.158 20 3.158 20 1.053 5.263 1.053"/>
    </g>
  </g>
</svg>
