<svg xmlns="http://www.w3.org/2000/svg" xmlns:xlink="http://www.w3.org/1999/xlink" width="127" height="127" viewBox="0 0 127 127">
  <defs>
    <circle id="nope-b" cx="61.5" cy="61.5" r="61.5"/>
    <filter id="nope-a" width="106.5%" height="106.5%" x="-3.3%" y="-1.6%" filterUnits="objectBoundingBox">
      <feOffset dy="2" in="SourceAlpha" result="shadowOffsetOuter1"/>
      <feGaussianBlur in="shadowOffsetOuter1" result="shadowBlurOuter1" stdDeviation="1"/>
      <feColorMatrix in="shadowBlurOuter1" values="0 0 0 0 0   0 0 0 0 0   0 0 0 0 0  0 0 0 0.05 0"/>
    </filter>
  </defs>
  <g fill="none" fill-rule="evenodd" transform="translate(2)">
    <use fill="#000" filter="url(#nope-a)" xlink:href="#nope-b"/>
    <use fill="#E04F5F" xlink:href="#nope-b"/>
    <g transform="translate(29.52 33.21)">
      <path stroke="#FFF" stroke-linecap="round" stroke-width="7" d="M8,50 L54.98,50"/>
      <g fill="#FFF">
        <path d="M7.99541019 15.99C10.2014083 15.99 12.0855446 15.2081658 13.6472721 13.6475055 15.2089995 12.0868452 15.99 10.2024032 15.99 7.99554693 15.99 5.78869066 15.2089995 3.9042487 13.6472721 2.34249453 12.0855446.781834211 10.2014083 0 7.99541019 0 5.78859166 0 3.90418193.781834211 2.34245447 2.34249453.78182084 3.90534256 0 5.78869066 0 7.99554693 0 10.2024032.780727002 12.0868452 2.34245447 13.6475055 3.90418193 15.2092596 5.78859166 15.99 7.99541019 15.99M55.9655469 0C53.7589925 0 51.8737146.780740354 50.3121741 2.34249453 48.7517273 3.9042487 47.97 5.7875968 47.97 7.99445307 47.97 10.2013093 48.7517273 12.0868452 50.3121741 13.6475055 51.8737146 15.2092596 53.7589925 15.99 55.9655469 15.99 58.1710075 15.99 60.0551917 15.2081658 61.6178259 13.6475055 63.1793665 12.0868452 63.96 10.2013093 63.96 7.99445307 63.96 5.7875968 63.1793665 3.9042487 61.6178259 2.34249453 60.0551917.780740354 58.1710075 0 55.9655469 0"/>
      </g>
    </g>
  </g>
</svg>
