<?xml version="1.0" encoding="UTF-8"?>
<svg width="19px" height="21px" viewBox="0 0 19 21" version="1.1" xmlns="http://www.w3.org/2000/svg" xmlns:xlink="http://www.w3.org/1999/xlink">
    <!-- Generator: Sketch 46.2 (44496) - http://www.bohemiancoding.com/sketch -->
    <title>Notebook icon</title>
    <desc>Created with Sketch.</desc>
    <defs></defs>
    <g id="Scribe-Dashboards" stroke="none" stroke-width="1" fill="none" fill-rule="evenodd">
        <g id="Estadísticas" transform="translate(-40.000000, -331.000000)" fill="#E11D24">
            <g id="Main-Nav" transform="translate(-5.000000, 0.000000)">
                <g id="Notebook-icon" transform="translate(45.000000, 331.000000)">
                    <path d="M0.363557692,15.9469182 C0.162139423,15.9469182 0,15.7778365 0,15.5677942 C0,14.51663 0.818918269,13.6626484 1.82692308,13.6626484 C2.83310096,13.6626484 3.65384615,14.51663 3.65384615,15.5677942 C3.65384615,15.7778365 3.48942308,15.9469182 3.28800481,15.9469182 C3.08612981,15.9469182 2.92216346,15.7778365 2.92216346,15.5677942 C2.92216346,14.9367146 2.42980769,14.4232778 1.82692308,14.4232778 C1.22175481,14.4232778 0.729399038,14.9367146 0.729399038,15.5677942 C0.729399038,15.7778365 0.565432692,15.9469182 0.363557692,15.9469182 Z M0.363557692,13.6626484 C0.162139423,13.6626484 0,13.4913638 0,13.2815402 C0,12.2314707 0.818918269,11.3783785 1.82692308,11.3783785 C2.83310096,11.3783785 3.65384615,12.2314707 3.65384615,13.2815402 C3.65384615,13.4913638 3.48942308,13.6626484 3.28800481,13.6626484 C3.08612981,13.6626484 2.92216346,13.4913638 2.92216346,13.2815402 C2.92216346,12.6515937 2.42980769,12.1382158 1.82692308,12.1382158 C1.22175481,12.1382158 0.729399038,12.6515937 0.729399038,13.2815402 C0.729399038,13.4913638 0.565432692,13.6626484 0.363557692,13.6626484 Z M0.363557692,11.3783785 C0.162139423,11.3783785 0,11.2070939 0,10.9972704 C0,9.94720089 0.818918269,9.09410864 1.82692308,9.09410864 C2.83310096,9.09410864 3.65384615,9.94720089 3.65384615,10.9972704 C3.65384615,11.2070939 3.48942308,11.3783785 3.28800481,11.3783785 C3.08612981,11.3783785 2.92216346,11.2070939 2.92216346,10.9972704 C2.92216346,10.3673238 2.42980769,9.85632491 1.82692308,9.85632491 C1.22175481,9.85632491 0.729399038,10.3673238 0.729399038,10.9972704 C0.729399038,11.2070939 0.565432692,11.3783785 0.363557692,11.3783785 Z M0.363557692,9.09410864 C0.162139423,9.09410864 0,8.92329988 0,8.71300051 C0,7.66483419 0.818918269,6.80983879 1.82692308,6.80983879 C2.83310096,6.80983879 3.65384615,7.66483419 3.65384615,8.71300051 C3.65384615,8.92329988 3.48942308,9.09410864 3.28800481,9.09410864 C3.08612981,9.09410864 2.92216346,8.92329988 2.92216346,8.71300051 C2.92216346,8.08305398 2.42980769,7.57205506 1.82692308,7.57205506 C1.22175481,7.57205506 0.729399038,8.08305398 0.729399038,8.71300051 C0.729399038,8.92329988 0.565432692,9.09410864 0.363557692,9.09410864 Z M0.729399038,6.42873066 C0.729399038,6.64093319 0.565432692,6.80983879 0.363557692,6.80983879 C0.162139423,6.80983879 0,6.64093319 0,6.42873066 C0,5.38056434 0.818918269,4.52556894 1.82692308,4.52556894 C2.83310096,4.52556894 3.65384615,5.38056434 3.65384615,6.42873066 C3.65384615,6.64093319 3.48942308,6.80983879 3.28800481,6.80983879 C3.08612981,6.80983879 2.92216346,6.64093319 2.92216346,6.42873066 C2.92216346,5.80068729 2.42980769,5.28778521 1.82692308,5.28778521 C1.22175481,5.28778521 0.729399038,5.80068729 0.729399038,6.42873066 Z" id="Combined-Shape"></path>
                    <path d="M17.5929998,0.00181042286 L5.98030047,0.00181042286 L5.98030047,0 L1.40700016,0 L1.40700016,2.57080047 C0.604759369,2.74052761 0,3.47058063 0,4.34592008 C0,4.5455192 0.156137874,4.70619423 0.350100697,4.70619423 C0.544503345,4.70619423 0.702400519,4.5455192 0.702400519,4.34592008 C0.702400519,3.74621751 1.17653186,3.25830855 1.75929998,3.25830855 C2.33986898,3.25830855 2.81400032,3.74621751 2.81400032,4.34592008 C2.81400032,4.5455192 2.9718975,4.70619423 3.16630015,4.70619423 C3.36026297,4.70619423 3.51859997,4.5455192 3.51859997,4.34592008 C3.51859997,3.47058063 2.9120813,2.74052761 2.10940068,2.57080047 L2.10940068,0.725074357 L5.27789995,0.725074357 L5.27789995,20.2771887 L2.10940068,20.2771887 L2.10940068,17.7416915 C2.10940068,17.5420923 1.95326281,17.3791543 1.75929998,17.3791543 C1.56489734,17.3791543 1.40700016,17.5420923 1.40700016,17.7416915 L1.40700016,18.3993276 C0.997962916,18.2490625 0.702400519,17.851222 0.702400519,17.3791543 C0.702400519,16.7817147 1.17653186,16.2938058 1.75929998,16.2938058 C2.33986898,16.2938058 2.81400032,16.7817147 2.81400032,17.3791543 C2.81400032,17.5810164 2.9718975,17.7416915 3.16630015,17.7416915 C3.36026297,17.7416915 3.51859997,17.5810164 3.51859997,17.3791543 C3.51859997,16.3820639 2.72823445,15.5687314 1.75929998,15.5687314 C0.788606218,15.5687314 0,16.3820639 0,17.3791543 C0,18.2544937 0.604759369,18.9845467 1.40700016,19.1542739 L1.40700016,21 L17.5929998,21 C18.369291,21 19,20.351416 19,19.5539247 L19,1.44788568 C19,0.650394414 18.369291,0.00181042286 17.5929998,0.00181042286 Z M5.98030047,20.2771887 L14.4245006,20.2771887 L14.4245006,0.725074357 L5.98030047,0.725074357 L5.98030047,20.2771887 Z M15.1291002,20.2771887 L16.1838006,20.2771887 L16.1838006,0.725074357 L15.1291002,0.725074357 L15.1291002,20.2771887 Z M18.2954004,19.5539247 C18.2954004,19.9517652 17.9809255,20.2771887 17.5929998,20.2771887 L16.8884002,20.2771887 L16.8884002,0.725074357 L17.5929998,0.725074357 C17.9809255,0.725074357 18.2954004,1.05004526 18.2954004,1.44788568 L18.2954004,19.5539247 Z" id="Fill-6"></path>
                </g>
            </g>
        </g>
    </g>
</svg>