<svg xmlns="http://www.w3.org/2000/svg" width="40" height="39" viewBox="0 0 40 39">
  <path fill="#E11D24" fill-rule="evenodd" d="M49.5494924,55 C38.7509871,55 30,63.7307074 30,74.5 C30,85.2684405 38.7509871,94 49.5494924,94 C60.3466308,94 69.0989848,85.2684405 69.0989848,74.5 C69.0989848,63.7307074 60.345264,55 49.5494924,55 Z M49.5494924,58.6560583 C58.3230323,58.6560583 65.4309135,65.7491828 65.4309135,74.5 C65.4309135,83.2513284 58.3237157,90.3437713 49.5494924,90.3437713 C40.7750982,90.3437713 33.6653376,83.2513284 33.6653376,74.5 C33.6653376,65.7505462 40.776465,58.6560583 49.5494924,58.6560583 Z M48.8114017,66.2524383 L41.8277316,73.2983561 C40.7498118,73.9587405 40.7498118,75.0410891 41.8277316,75.7014735 L48.8114017,82.7494363 C49.8877839,83.4084573 50.7714424,82.8685611 50.7714424,81.5452361 L50.7714424,78.1574216 L56.8801676,78.1574216 C57.5562381,78.1574216 58.1021177,77.610879 58.1021177,76.9383947 L58.1021177,72.0634799 C58.1021177,71.3898027 57.5562381,70.844453 56.8801676,70.844453 L50.7714424,70.844453 L50.7714424,67.4554456 C50.7714424,66.1305868 49.8877839,65.5906906 48.8114017,66.2524383 Z" transform="translate(-30 -55)"/>
</svg>
