<svg xmlns="http://www.w3.org/2000/svg" width="39" height="40" viewBox="0 0 39 40">
  <path fill="#FFFFFF" fill-rule="evenodd" d="M49.5,45.156 C38.7288327,45.156 30,53.8867074 30,64.656 C30,75.4244405 38.7288327,84.156 49.5,84.156 C60.2698039,84.156 69,75.4244405 69,64.656 C69,53.8867074 60.2684405,45.156 49.5,45.156 Z M49.5,48.8120583 C58.2513284,48.8120583 65.341215,55.9051828 65.341215,64.656 C65.341215,73.4073284 58.2520101,80.4997713 49.5,80.4997713 C40.7478195,80.4997713 33.6560583,73.4073284 33.6560583,64.656 C33.6560583,55.9065462 40.7491828,48.8120583 49.5,48.8120583 Z M48.7637779,56.4084383 L41.797788,63.4543561 C40.7225971,64.1147405 40.7225971,65.1970891 41.797788,65.8574735 L48.7637779,72.9054363 C49.8374351,73.5644573 50.7188565,73.0245611 50.7188565,71.7012361 L50.7188565,68.3134216 L56.8121166,68.3134216 C57.4864755,68.3134216 58.0309731,67.766879 58.0309731,67.0943947 L58.0309731,62.2194799 C58.0309731,61.5458027 57.4864755,61.000453 56.8121166,61.000453 L50.7188565,61.000453 L50.7188565,57.6114456 C50.7188565,56.2865868 49.8374351,55.7466906 48.7637779,56.4084383 Z" transform="translate(-30 -45)"/>
</svg>
