<svg xmlns="http://www.w3.org/2000/svg" width="84" height="84" viewBox="0 0 84 84" xmlns:xlink="http://www.w3.org/1999/xlink">
  <defs>
    <circle id="b" cx="40" cy="40" r="40"/>
    <filter id="a" width="200%" height="200%" x="-50%" y="-50%" filterUnits="objectBoundingBox">
      <feOffset dy="2" in="SourceAlpha" result="shadowOffsetOuter1"/>
      <feGaussianBlur stdDeviation="1" in="shadowOffsetOuter1" result="shadowBlurOuter1"/>
      <feColorMatrix values="0 0 0 0 0 0 0 0 0 0 0 0 0 0 0 0 0 0 0.0528475996 0" in="shadowBlurOuter1"/>
    </filter>
  </defs>
  <g fill="none" fill-rule="evenodd" transform="translate(2)">
    <use fill="black" filter="url(#a)" xlink:href="#b"/>
    <use fill="#FFFFFF" xlink:href="#b"/>
    <path fill="#4990E2" d="M53.3424153,35.30391 C53.1240104,34.8791123 52.0588492,33.9052445 50.2621406,34.7894571 C48.4653227,35.6737789 49.3339194,37.6155084 49.3339194,37.6155084 C50.0035491,38.9890574 50.3802977,40.5311058 50.3802977,42.1623727 C50.3802977,47.8955036 45.7327487,52.5430526 39.999181,52.5430526 C34.2669237,52.5430526 29.6189379,47.8955036 29.6189379,42.1623727 C29.6189379,36.7964897 33.6902253,32.3827433 38.9105413,31.8384781 L38.9105413,34.5288999 C38.9105413,34.5288999 38.903334,34.6892092 39.0700862,34.7907675 C39.2369476,34.8923258 39.4036998,34.7907675 39.4036998,34.7907675 L48.0157361,29.7166736 C48.0157361,29.7166736 48.2085877,29.6152245 48.2085877,29.4163667 C48.2085877,29.252563 48.0157361,29.13659 48.0157361,29.13659 L39.4323108,24.0906703 C39.4323108,24.0906703 39.2369476,23.9506727 39.0628788,24.0185967 C38.8892468,24.0864114 38.9105413,24.3227256 38.9105413,24.3227256 L38.9105413,27.2050162 C31.1354329,27.7633686 25,34.2434446 25,42.1623727 C25,50.4463647 31.7156258,57.1618813 39.999181,57.1618813 C48.2836098,57.1618813 55,50.4463647 55,42.1623727 C55,39.6903558 54.4015703,37.3592102 53.3424153,35.30391 Z"/>
  </g>
</svg>
