<svg xmlns="http://www.w3.org/2000/svg" width="211" height="129" viewBox="0 0 211 129" xmlns:xlink="http://www.w3.org/1999/xlink">
  <defs>
    <polygon id="a" points="0 .513 0 129 210.848 129 210.848 .513 0 .513"/>
  </defs>
  <g fill="none" fill-rule="evenodd">
    <mask id="b" fill="white">
      <use xlink:href="#a"/>
    </mask>
    <path fill="#E11C24" d="M12.5141949,0.512931048 C14.5381561,0.512931048 16.3229498,0.883806048 18.3750784,1.99122944 C40.7292993,10.6451528 70.6370129,15.9866891 105.215918,15.9866891 C139.795848,15.9866891 172.397908,10.3226528 194.963642,0.978995565 C194.953911,1.0336125 194.973884,0.925418952 194.963642,0.978995565 C196.036054,0.675221371 197.165826,0.512931048 198.334008,0.512931048 C205.244258,0.512931048 210.848049,6.20453589 210.848049,13.2235923 L210.848049,116.289391 C210.848049,123.307927 205.244258,129.000052 198.334008,129.000052 C196.322338,129.000052 194.537544,128.572479 192.751214,127.666358 C170.339634,118.853786 139.393821,113.401455 105.215918,113.401455 C71.7135226,113.401455 41.316207,118.64104 19.0188333,127.149318 C17.8127532,127.89627 15.83386,128.628657 12.420474,128.999012 C5.55375558,128.947516 -0.000358495146,123.276197 -0.000358495146,116.289391 L-0.000358495146,13.2235923 C-0.000358495146,6.20453589 5.6039449,0.512931048 12.5141949,0.512931048" mask="url(#b)"/>
    <path fill="#FEFEFE" d="M86.1070002 87.8019774L86.1070002 49.8182395 96.641124 49.8182395 96.641124 56.8201306C97.6828085 53.9020258 104.391277 47.4265379 108.56416 49.8057556L108.1565 60.9580137C99.425607 59.9613847 96.9509663 65.5718444 96.9509663 73.0184734L96.9509663 87.8019774 86.1070002 87.8019774zM141.731107 58.5891992C140.508126 58.6365339 139.387061 58.9070177 138.36791 59.4022113 137.34876 59.8974048 136.431525 60.6167879 135.616204 61.5598403 134.800372 62.5028927 134.189393 63.5759855 133.781733 64.7780782 133.373561 65.9806911 133.170243 67.3362315 133.170243 68.8457395 133.170243 70.3542073 133.373561 71.733675 133.781733 72.9836226 134.189393 74.23305 134.800372 75.3290298 135.616204 76.2726024 136.482226 77.2624694 137.425068 77.9938161 138.444219 78.4656024 139.463881 78.9368685 140.558828 79.1725016 141.731107 79.1725016 143.005301 79.1725016 144.151974 78.9368685 145.171124 78.4656024 146.190275 77.9938161 147.106998 77.2624694 147.92283 76.2726024 148.789364 75.3290298 149.426461 74.23305 149.834122 72.9836226 150.24127 71.733675 150.445612 70.3542073 150.445612 68.8457395 150.445612 67.3362315 150.24127 65.9806911 149.834122 64.7780782 149.426461 63.5759855 148.814459 62.5028927 147.999651 61.5598403 147.183818 60.6167879 146.253779 59.8974048 145.209022 59.4022113 144.164265 58.9070177 143.005301 58.6599411 141.731107 58.6599411L141.731107 58.5891992zM169.560061 65.8038363L184.848342 65.8038363C184.714675 64.6246306 184.447852 63.5635016 184.04685 62.6209694 183.646359 61.6773968 183.09018 60.8758282 182.377799 60.2157435 181.710486 59.5556589 180.931527 59.0604653 180.041435 58.7301629 179.151342 58.4003806 178.172139 58.2349694 177.104335 58.2349694 176.03602 58.2349694 175.067571 58.4003806 174.200012 58.7301629 173.33143 59.0604653 172.563738 59.5790661 171.896425 60.2870056 171.184556 60.9939048 170.639131 61.8074371 170.260663 62.7270823 169.882707 63.6467274 169.64866 64.6958927 169.560061 65.8745782L169.560061 65.8038363zM192.977988 81.4653726C190.405017 84.8219734 187.074597 87.1548968 183.608974 88.0500944 181.873857 88.4979532 179.973321 88.7221427 177.907876 88.7221427 175.140294 88.7221427 172.650801 88.2857274 170.440935 87.4134169 168.230556 86.5405863 166.279318 85.2089734 164.585173 83.4164976 162.933022 81.6245419 161.682898 79.538175 160.836338 77.1563565 160.696012 76.7605137 160.566442 76.3568685 160.448651 75.9449008 160.378488 76.2003 160.304741 76.4504976 160.225872 76.6965339 159.863792 77.8757395 159.399796 78.9602758 158.834398 79.9506629 158.268488 80.94105 157.601175 81.9075097 156.831947 82.8505621 155.971558 83.7468 155.066614 84.5483685 154.116602 85.2557879 153.165566 85.9632073 152.170486 86.5764774 151.129313 87.0950782 150.043585 87.5663444 148.934811 87.9080903 147.802991 88.1203161 146.671682 88.3330621 145.51784 88.439175 144.340952 88.439175 143.073927 88.439175 141.897551 88.3210984 140.810799 88.0849452 139.724558 87.8493121 138.706944 87.4721952 137.75642 86.9530742 136.851476 86.4344734 136.081736 85.797796 135.448224 85.0435621 134.814199 84.2893282 134.316915 83.4638323 133.954835 82.5675944L133.954835 87.8019774 122.55008 87.8019774 122.55008 36.5244774 134.294381 36.5244774 134.294381 55.0521024C134.656461 54.1563847 135.119944 53.3428524 135.685855 52.6120258 136.251253 51.880679 136.964658 51.2798927 137.824022 50.8081065 138.683898 50.2895056 139.623156 49.9118685 140.641282 49.6762355 141.65992 49.4406024 142.779961 49.3225258 144.001406 49.3225258 145.178294 49.3225258 146.332136 49.4291589 147.463957 49.6413847 148.595265 49.8536105 149.681505 50.2187637 150.722165 50.7373645 151.762825 51.2086306 152.75893 51.7984935 153.708942 52.5059129 154.658954 53.2133323 155.56441 54.0383081 156.424287 54.9813605 157.239095 55.8775984 157.951476 56.8326145 158.562966 57.8458887 159.173432 58.8602032 159.682495 59.9801105 160.090156 61.2061306 160.208459 61.5489169 160.318056 61.8963847 160.419459 62.2480137 160.535714 61.8214815 160.664772 61.4027516 160.805097 60.9939048 161.631685 58.5891992 162.871054 56.4435339 164.523204 54.5569089 166.175867 52.7181387 168.086134 51.338671 170.255542 50.4190258 172.423925 49.4993806 174.871423 49.0395581 177.598034 49.0395581 188.309357 49.0395581 196.641296 59.6856992 194.859063 72.7079371L169.824835 72.778679C170.111119 77.0393202 173.583913 79.2432435 178.031813 79.2432435 179.432505 79.2432435 183.34676 79.8658766 186.870255 75.7311145L192.977988 81.4653726zM85.2215172 81.6026952C81.1305755 86.3403242 77.221442 88.7221427 71.0210124 88.7221427 68.1438328 88.7221427 65.5549857 88.2857274 63.2534468 87.4134169 60.9513959 86.5405863 58.8936337 85.185046 57.078624 83.3462758 55.4449104 81.6484694 54.1978595 79.7108685 53.336959 77.5319129 52.8954978 78.9925258 52.1672405 80.4094452 51.0712697 81.6963242 45.8398012 87.8373484 38.91009 89.5627234 30.8931143 88.113554 22.8761386 86.6638645 17.3568498 81.6932032 16.7781362 81.1387113 16.2004468 80.5852597 15.9961046 80.3428645 15.9961046 80.3428645L22.3235439 72.5909008C22.3235439 72.5909008 28.6509833 78.3147556 34.493942 78.728804 40.3369007 79.1428524 42.5109177 76.9342476 43.258124 74.5196589 44.0053303 72.1040298 40.0649566 69.4127153 36.0564687 68.6538 32.0479808 67.8948847 23.6233449 65.4797758 20.4982915 61.9603645 17.372726 58.4414734 16.1497454 48.2972879 21.92459 42.5011306 27.6999468 36.7044532 38.841976 37.9465984 42.9185779 38.9130581 46.9946677 39.8784774 51.2750998 43.0530218 52.2343303 44.1708484L46.9291143 52.5985016C46.9291143 52.5985016 42.5785197 48.849179 37.8228255 47.8832395 33.0671313 46.9173 29.1267575 48.5043121 28.7866993 51.0572637 28.4471532 53.6112556 29.2624735 55.8880016 35.6488085 57.4750137 42.0351434 59.0620258 47.334726 60.9252435 50.2559493 63.6857395 50.8443934 64.2417919 51.4420561 65.0558444 51.9772381 66.0519532 52.1687769 64.1923766 52.5518546 62.4591992 53.1285197 60.852421 53.9919808 58.4471952 55.3086823 56.3488645 57.078624 54.5569089 58.8936337 52.7181387 60.9513959 51.338671 63.2534468 50.4190258 71.3759226 47.1742597 80.11501 49.5113444 85.0955318 56.0060782L78.8024056 63.1052395C72.8985027 56.1870944 62.7279954 58.5470661 62.1585002 68.2251871 61.5905415 77.8814613 72.018141 84.517679 79.1941896 74.762054L85.2215172 81.6026952zM191.179367 44.3543093L191.659238 44.3543093C191.970105 44.3543093 192.163692 44.3407851 192.241025 44.3137367 192.318357 44.2872085 192.379813 44.2414343 192.423345 44.1764141 192.467389 44.1108738 192.488898 44.0297286 192.488898 43.9319383 192.488898 43.8221843 192.459707 43.7337569 192.402347 43.6661359 192.344476 43.5985149 192.263046 43.5563819 192.158571 43.5386964 192.105308 43.530894 191.947571 43.5272528 191.684845 43.5272528L191.179367 43.5272528 191.179367 44.3543093zM190.531003 46.2357327L190.531003 42.9753617 191.894821 42.9753617C192.238464 42.9753617 192.488386 43.0050109 192.643051 43.0637891 192.798741 43.1220472 192.922677 43.2255593 193.016398 43.3753657 193.110119 43.5256923 193.156724 43.6963052 193.156724 43.8892851 193.156724 44.1337609 193.086049 44.3361036 192.944699 44.495273 192.80335 44.6544423 192.591838 44.7553536 192.310163 44.7969665 192.449976 44.8801923 192.565719 44.9717407 192.656879 45.0705714 192.748039 45.1699222 192.870952 45.3462569 193.025105 45.6000956L193.417913 46.2357327 192.642539 46.2357327 192.173935 45.5262327C192.007491 45.2729141 191.893796 45.1132246 191.83234 45.0471641 191.770884 44.9811036 191.705842 44.9363698 191.637728 44.9108819 191.56859 44.8869544 191.459505 44.8749907 191.310986 44.8749907L191.179367 44.8749907 191.179367 46.2357327 190.531003 46.2357327zM191.810318 41.4814585C193.328289 41.4814585 194.559976 42.8801722 194.559976 44.6055472 194.559976 46.3309222 193.328289 47.7296359 191.810318 47.7296359 190.292859 47.7296359 189.06066 46.3309222 189.06066 44.6055472 189.06066 42.8801722 190.292859 41.4814585 191.810318 41.4814585L191.810318 41.4814585zM191.810318 40.7069383C193.704709 40.7069383 195.241629 42.4525996 195.241629 44.6055472 195.241629 46.7584948 193.704709 48.5046762 191.810318 48.5046762 189.915927 48.5046762 188.37952 46.7584948 188.37952 44.6055472 188.37952 42.4525996 189.915927 40.7069383 191.810318 40.7069383L191.810318 40.7069383zM120.779678 87.6623141L109.935712 87.6623141 109.935712 64.7627335C109.935712 64.7627335 119.410226 63.5923706 120.348971 57.0903544L120.733073 57.0903544 120.779678 87.6623141z" mask="url(#b)"/>
    <path fill="#94C83D" d="M109.935814,61.771546 C109.935814,61.771546 113.264698,61.078171 114.374496,59.2576065 C114.374496,59.2576065 111.557749,56.5699331 111.642763,51.4551871 C111.72829,46.339921 117.532326,42.6124452 117.532326,42.6124452 C117.532326,42.6124452 118.30053,42.1786306 118.471583,40.4449331 C118.471583,40.4449331 121.800467,45.3864653 120.605142,50.4148645 C119.410329,55.4427435 117.532326,58.2172839 115.569309,59.6909008 C115.569309,59.6909008 112.496494,62.1184935 109.935814,61.771546" mask="url(#b)"/>
  </g>
</svg>
