<?xml version="1.0" encoding="UTF-8"?>
<svg width="21px" height="22px" viewBox="0 0 21 22" version="1.1" xmlns="http://www.w3.org/2000/svg" xmlns:xlink="http://www.w3.org/1999/xlink">
    <!-- Generator: Sketch 48.1 (47250) - http://www.bohemiancoding.com/sketch -->
    <title>search icon</title>
    <desc>Created with Sketch.</desc>
    <defs>
        <path d="M19.9897858,23.2810903 L15.7933356,18.9022351 C16.9738705,17.335364 17.6842307,15.3640294 17.6842307,13.2216192 C17.6842307,8.13466966 13.7177696,3.996 8.84268182,3.996 C3.96646112,3.996 0,8.13466966 0,13.2216192 C0,18.3074358 3.96646112,22.4461055 8.84268182,22.4461055 C10.752837,22.4461055 12.5191075,21.8025894 13.9670188,20.7240201 L18.2031222,25.1447945 C18.4501055,25.4019744 18.7729965,25.5299979 19.0970205,25.5299979 C19.4199115,25.5299979 19.7428025,25.4019744 19.9897858,25.1447945 C20.4826194,24.6304348 20.4826194,23.796583 19.9897858,23.2810903 L19.9897858,23.2810903 Z M2.52534757,13.2216192 C2.52534757,9.58824567 5.35999073,6.63237676 8.84268182,6.63237676 C12.3253729,6.63237676 15.1577502,9.58824567 15.1577502,13.2216192 C15.1577502,16.8549928 12.3253729,19.8097287 8.84268182,19.8097287 C5.35999073,19.8097287 2.52534757,16.8549928 2.52534757,13.2216192 L2.52534757,13.2216192 Z" id="path-1"></path>
    </defs>
    <g id="Estadísticas" stroke="none" stroke-width="1" fill="none" fill-rule="evenodd" transform="translate(-161.000000, -41.000000)">
        <g id="Top-Nav" transform="translate(100.000000, 21.000000)">
            <g id="Search" transform="translate(61.000000, 16.000000)">
                <g id="search-icon">
                    <use fill-opacity="0.61" fill="#989898" fill-rule="evenodd" xlink:href="#path-1"></use>
                    <path stroke="#FFFFFF" stroke-width="0.6" d="M19.7730579,23.4885248 L15.4001536,18.9255455 L15.5537312,18.7217088 C16.732008,17.1578348 17.3842307,15.2392319 17.3842307,13.2216192 C17.3842307,8.29760045 13.549194,4.296 8.84268182,4.296 C4.13520594,4.296 0.3,8.29742307 0.3,13.2216192 C0.3,18.1448524 4.13536814,22.1461055 8.84268182,22.1461055 C10.6330199,22.1461055 12.3445746,21.5585149 13.7878028,20.483434 L14.0003001,20.3251419 L14.1836268,20.5164606 L18.4195003,24.9369953 C18.6030445,25.128117 18.8445898,25.2299979 19.0970205,25.2299979 C19.348424,25.2299979 19.5899447,25.1280324 19.7731695,24.9372437 C20.1548241,24.5389191 20.1548629,23.8880163 19.7730579,23.4885248 Z M2.22534757,13.2216192 C2.22534757,9.42558719 5.19115812,6.33237676 8.84268182,6.33237676 C12.493809,6.33237676 15.4577502,9.42516895 15.4577502,13.2216192 C15.4577502,17.017869 12.493999,20.1097287 8.84268182,20.1097287 C5.19096797,20.1097287 2.22534757,17.0174509 2.22534757,13.2216192 Z"></path>
                </g>
            </g>
        </g>
    </g>
</svg>