<svg xmlns="http://www.w3.org/2000/svg" width="29" height="32" viewBox="0 0 29 32">
  <g fill="none" fill-rule="evenodd">
    <path stroke="#FFF" stroke-width="4" d="M9.48124284,36.25 L14.5010544,36.25 C17.4021719,36.25 19.75,33.9020019 19.75,31.0028905 L19.75,17.4971095 C19.75,14.5961267 17.4017441,12.25 14.5,12.25 C8.87704151,12.25 8.87704151,12.25 7.25,12.25 L9.24992096,10.2322189 L9.48124284,36.25 Z" transform="rotate(90 14.5 24.25)"/>
    <circle cx="2.5" cy="17" r="2" fill="#FFF"/>
    <circle cx="26.5" cy="17" r="2" fill="#FFF"/>
    <path fill="#FFF" d="M12.5,6.03155478 L8.50089933,8.93707149 C7.72086704,9.50379812 6.63195583,9.33480601 6.05990173,8.54744109 C5.49180828,7.76552753 5.66858354,6.66863144 6.44365094,6.10551201 L13.3320404,1.10080414 C13.6304096,0.884026233 13.9739717,0.774893513 14.3165138,0.766838599 C14.5771194,0.741555867 14.8326271,0.787433862 15.0559921,0.912100438 C15.2697079,1.00538539 15.4673038,1.14274729 15.6344522,1.32215001 L22.6032035,6.38524421 C23.2345501,6.84394436 23.2897875,7.84420912 22.7177334,8.63157404 C22.14964,9.4134876 21.1803993,9.67775436 20.5459551,9.21680369 L16,5.91397396 L16,20.2413107 C16,21.212608 15.2232366,22 14.25,22 C13.2835017,22 12.5,21.2149883 12.5,20.2413107 L12.5,6.03155478 Z"/>
  </g>
</svg>
