<?xml version="1.0" encoding="UTF-8"?>
<svg width="21px" height="22px" viewBox="0 0 21 22" version="1.1" xmlns="http://www.w3.org/2000/svg" xmlns:xlink="http://www.w3.org/1999/xlink">
    <!-- Generator: Sketch 46.2 (44496) - http://www.bohemiancoding.com/sketch -->
    <title>Stats icon</title>
    <desc>Created with Sketch.</desc>
    <defs></defs>
    <g id="Scribe-Dashboards" stroke="none" stroke-width="1" fill="none" fill-rule="evenodd">
        <g id="Estadísticas" transform="translate(-39.000000, -405.000000)" fill="#E11D24">
            <g id="Main-Nav" transform="translate(-5.000000, 0.000000)">
                <g id="Stats-icon" transform="translate(44.000000, 405.000000)">
                    <path d="M17.6753444,12.2983389 C17.5250667,14.3917278 16.5930111,16.3382278 15.0508444,17.7792833 C13.5014,19.2271722 11.4824,20.0245056 9.36567778,20.0245056 C4.77128889,20.0245056 1.03345556,16.2866722 1.03345556,11.6922833 C1.03345556,9.57545 1.83078889,7.55639444 3.27862222,6.00695 C4.71973333,4.46478333 6.66623333,3.53267222 8.75962222,3.38239444 L8.84895556,3.37600556 L8.84895556,11.6922833 C8.84895556,11.9772278 9.08073333,12.2090611 9.36567778,12.2090611 L17.6817333,12.2090611 L17.6753444,12.2983389 Z M18.2144,11.1755611 L9.8824,11.1755611 L9.8824,2.84333889 C9.8824,2.55845 9.65056667,2.32661667 9.36567778,2.32661667 C4.2014,2.32661667 1.11111111e-05,6.52806111 1.11111111e-05,11.6922833 C1.11111111e-05,16.8563944 4.2014,21.0577278 9.36567778,21.0577278 C14.5297889,21.0577278 18.7311222,16.8563944 18.7311222,11.6922833 C18.7311222,11.4073389 18.4993444,11.1755611 18.2144,11.1755611 L18.2144,11.1755611 Z" id="Fill-1"></path>
                    <path d="M19.9486778,8.90885 L12.1489,8.90885 L12.1489,1.10918333 L12.2382333,1.11568333 C14.4235111,1.27440556 16.4260111,2.26773889 17.8769556,3.91279444 C19.0741778,5.26496111 19.8076222,7.00751667 19.9420667,8.81935 L19.9486778,8.90885 Z M11.6324,0.0555722222 C11.3474556,0.0555722222 11.1156778,0.28735 11.1156778,0.572294444 L11.1156778,9.42101667 C11.1156778,9.70596111 11.3474556,9.93773889 11.6324,9.93773889 L20.4811222,9.93773889 C20.7660667,9.93773889 20.9978444,9.70596111 20.9978444,9.42101667 L20.9978444,9.39001667 C20.9889556,7.11829444 20.1566222,4.92807222 18.6542333,3.22285 C16.8747889,1.21001667 14.3154,0.0555722222 11.6324,0.0555722222 L11.6324,0.0555722222 Z" id="Fill-4"></path>
                </g>
            </g>
        </g>
    </g>
</svg>